<svg width="24" height="24" viewBox="0 0 24 24" fill="none" xmlns="http://www.w3.org/2000/svg">
<path d="M9 14L9.74 14.123C9.75786 14.0155 9.75211 13.9055 9.72314 13.8005C9.69418 13.6955 9.64269 13.5981 9.57227 13.515C9.50185 13.4319 9.41418 13.3652 9.31535 13.3194C9.21652 13.2737 9.10891 13.25 9 13.25L9 14ZM20 14V14.75C20.1989 14.75 20.3897 14.671 20.5303 14.5303C20.671 14.3897 20.75 14.1989 20.75 14H20ZM18 3.24998H6.64V4.74998H18L18 3.24998ZM5.44 14.75H9L9 13.25H5.44L5.44 14.75ZM8.26 13.877L7.454 18.712L8.934 18.959L9.74 14.123L8.26 13.877ZM9.18 20.75H9.394V19.25H9.181L9.18 20.75ZM12.515 19.08L15.03 15.307L13.782 14.475L11.267 18.248L12.515 19.08ZM16.07 14.75H20V13.25H16.07V14.75ZM20.75 14L20.75 5.99998H19.25V14H20.75ZM3.943 5.45998L2.743 11.46L4.213 11.755L5.413 5.75498L3.943 5.46098V5.45998ZM15.03 15.307C15.1441 15.1357 15.2987 14.9962 15.4802 14.8991C15.6616 14.8019 15.8642 14.751 16.07 14.751V13.251C15.15 13.251 14.292 13.71 13.782 14.475L15.03 15.307ZM7.454 18.712C7.41233 18.9626 7.42574 19.2203 7.49329 19.4652C7.56083 19.7102 7.6809 19.9374 7.84515 20.1313C8.0094 20.3251 8.21388 20.4809 8.4444 20.5877C8.67491 20.6946 8.92593 20.7499 9.18 20.75L9.181 19.25C9.14475 19.2499 9.10796 19.2419 9.0751 19.2266C9.04224 19.2113 9.01309 19.1891 8.98969 19.1614C8.96629 19.1337 8.94919 19.1013 8.93957 19.0663C8.92996 19.0314 8.92805 18.9947 8.934 18.959L7.454 18.712ZM5.44 13.251C4.65 13.251 4.06 12.529 4.214 11.756L2.743 11.461C2.66342 11.8599 2.67333 12.2725 2.772 12.6671C2.87068 13.0617 3.05567 13.4295 3.31364 13.744C3.57161 14.0585 3.89614 14.3119 4.26383 14.4858C4.63153 14.6598 5.03323 14.75 5.44 14.75L5.44 13.25V13.251ZM6.64 3.24998C6.00429 3.24985 5.38818 3.47098 4.89647 3.8739C4.40476 4.27682 4.06783 4.83765 3.943 5.46098L5.413 5.75598C5.46968 5.47238 5.62296 5.21721 5.84669 5.03395C6.07043 4.85069 6.35079 4.74969 6.64 4.74998V3.24998ZM9.394 20.75C10.0113 20.7499 10.6191 20.5985 11.1634 20.3072C11.7077 20.0158 12.1716 19.5946 12.514 19.081L11.267 18.248C11.0615 18.5563 10.7829 18.8101 10.4562 18.9849C10.1294 19.1597 9.76457 19.2501 9.394 19.25V20.75ZM18 4.74998C18.69 4.74998 19.25 5.30998 19.25 5.99998H20.75C20.75 5.27063 20.4603 4.57116 19.9445 4.05543C19.4288 3.53971 18.7293 3.24998 18 3.24998L18 4.74998Z" fill="#6D7A75"/>
<path d="M16 14V4" stroke="#6D7A75" stroke-width="1.5"/>
</svg>
