<svg width="19" height="19" viewBox="0 0 19 19" fill="none" xmlns="http://www.w3.org/2000/svg">
<g id="Group">
<g id="Group_2">
<g id="Group_3">
<path id="Vector" d="M16.293 8.28625C15.061 8.28625 14.0586 9.24236 14.0586 10.4176C14.0586 11.3936 14.7686 12.2302 15.7083 12.4692V13.7241C15.7083 15.9749 13.7871 17.7876 11.4483 17.7876C9.08851 17.7876 7.18819 15.955 7.18819 13.7241V12.5489C9.84029 12.2899 11.9494 10.318 12.2 7.74844L12.7012 2.72889C12.7639 2.19108 12.555 1.65327 12.1792 1.25489C11.8033 0.856512 11.2603 0.617485 10.6756 0.617485H10.6338C10.425 0.258945 10.0282 0 9.56882 0C8.87969 0 8.33674 0.53781 8.33674 1.17521C8.33674 1.83254 8.90057 2.35043 9.56882 2.35043C10.0282 2.35043 10.425 2.09148 10.6338 1.73294H10.6756C10.9262 1.73294 11.135 1.83254 11.3021 1.99189C11.4691 2.17116 11.5527 2.39027 11.5318 2.60937L11.0306 7.62893C10.8218 9.82001 8.92145 11.4733 6.60347 11.4733C4.28549 11.4733 2.38517 9.82001 2.17634 7.62893L1.67516 2.60937C1.65428 2.37035 1.73781 2.15124 1.90487 1.99189C2.07193 1.81262 2.30164 1.73294 2.53135 1.73294H2.57311C2.78194 2.09148 3.17871 2.35043 3.63813 2.35043C4.32726 2.35043 4.87021 1.81262 4.87021 1.17521C4.87021 0.517891 4.30638 0 3.63813 0C3.17871 0 2.78194 0.258945 2.57311 0.617485H2.53135C1.96752 0.617485 1.42457 0.856512 1.02779 1.25489C0.651906 1.65327 0.463962 2.19108 0.505727 2.72889L1.00691 7.74844C1.2575 10.3379 3.36666 12.2899 6.01876 12.5489V13.7241C6.01876 16.5725 8.46203 18.903 11.4483 18.903C14.4345 18.903 16.8778 16.5725 16.8778 13.7241V12.4692C17.8384 12.2302 18.5275 11.3936 18.5275 10.4176C18.5484 9.24236 17.5251 8.28625 16.293 8.28625ZM16.293 11.4334C15.7083 11.4334 15.228 10.9753 15.228 10.4176C15.228 9.85984 15.7083 9.40171 16.293 9.40171C16.8778 9.40171 17.3581 9.85984 17.3581 10.4176C17.3789 10.9753 16.8986 11.4334 16.293 11.4334Z" fill="#6D7A75"/>
</g>
</g>
</g>
</svg>
