<svg width="46" height="62" viewBox="0 0 46 62" fill="none" xmlns="http://www.w3.org/2000/svg">
<path d="M45.9993 23.2423C46.15 41.7906 23.075 62 23.075 62C23.075 62 0 41.7906 0 23.2423C0 10.4063 10.2968 0 22.9989 0C35.7009 0 45.8947 10.407 45.9993 23.2423Z" fill="#CF7373"/>
<path d="M34.1019 22.4598L29.6207 21.1721C29.4865 21.1447 29.406 21.0077 29.406 20.8707V19.6925C29.406 19.2541 29.1109 18.898 28.7084 18.8158L26.7227 18.4322C26.5349 18.4048 26.4275 18.213 26.4812 18.0212C26.7764 17.0348 26.669 15.7471 26.5349 14.8977C26.4812 14.5963 26.1055 14.5415 25.9714 14.7881L20.5242 22.8434C20.4437 22.9804 20.4705 23.1448 20.551 23.2544C21.1414 24.1586 24.1467 28.4602 24.1467 28.4602C24.2272 28.5698 24.415 28.5698 24.4955 28.4602C25.0322 27.6382 25.5957 27.3642 25.9982 27.2272C26.4007 27.1177 26.83 27.0903 27.2594 27.1177C29.4597 27.3368 31.2307 27.1177 32.4114 26.8437C33.431 26.6245 34.2092 25.7751 34.4239 24.7339L34.6922 23.4188C34.7727 23.0078 34.5044 22.5968 34.1019 22.4598Z" fill="white"/>
<path d="M19.2355 24.1038C19.155 23.9942 18.994 23.9394 18.8866 23.9942C17.8938 24.5969 16.4985 24.8709 15.3446 24.8435C15.1568 24.8435 15.0226 25.0901 15.13 25.2819L21.0333 35.0633C21.1406 35.2551 21.4358 35.2551 21.5431 35.0633C22.3213 33.4742 22.9385 31.8029 23.3678 30.0493C23.3946 29.9671 23.3678 29.8849 23.341 29.8027L19.2355 24.1038Z" fill="white"/>
<path d="M19.7457 21.4457C21.8387 19.3086 21.8387 15.8015 19.7457 13.6644C17.6527 11.5272 14.218 11.5272 12.125 13.6644C10.0052 15.8015 10.0052 19.3086 12.125 21.4457C14.218 23.5828 17.6259 23.5828 19.7457 21.4457ZM13.2252 14.7877C14.54 13.4452 16.6062 13.2808 18.1089 14.3219L12.769 19.7469C11.7494 18.24 11.8835 16.1303 13.2252 14.7877ZM19.1017 15.3357C20.1214 16.87 19.9604 18.9524 18.6455 20.3223C17.3307 21.6649 15.2645 21.8293 13.7619 20.7881L19.1017 15.3357Z" fill="white"/>
</svg>
