<?xml version="1.0" encoding="utf-8"?>
<!-- Generator: Adobe Illustrator 24.3.0, SVG Export Plug-In . SVG Version: 6.00 Build 0)  -->
<svg version="1.1" id="Слой_1" xmlns="http://www.w3.org/2000/svg" xmlns:xlink="http://www.w3.org/1999/xlink" x="0px" y="0px"
	 viewBox="0 0 24 24" style="enable-background:new 0 0 24 24;" xml:space="preserve">
<style type="text/css">
	.st0{fill-rule:evenodd;clip-rule:evenodd;fill:#6D7A75;}
</style>
<path class="st0" d="M13.3,19.2c-0.4,0.5-0.9,1-1.4,1.3C11.3,20.8,10.6,21,10,21l-0.2,0c-0.3,0-0.6-0.1-0.8-0.2s-0.5-0.3-0.7-0.5
	c-0.2-0.2-0.3-0.5-0.4-0.8c-0.1-0.3-0.1-0.6,0-0.9L8.4,15L6,15c-0.4,0-0.9-0.1-1.3-0.3c-0.4-0.2-0.8-0.5-1-0.8
	c-0.3-0.3-0.5-0.7-0.6-1.2c-0.1-0.4-0.1-0.9,0-1.3l1.2-6c0.1-0.7,0.5-1.3,1-1.7C5.8,3.2,6.5,3,7.2,3l11.4,0c0.8,0,1.6,0.3,2.1,0.9
	c0.6,0.6,0.9,1.3,0.9,2.1l0,8c0,0.3-0.1,0.5-0.3,0.7c-0.2,0.2-0.4,0.3-0.7,0.3l-3.9,0c-0.2,0-0.3,0-0.5,0.1
	c-0.1,0.1-0.3,0.2-0.4,0.3L13.3,19.2z M17.6,13l2,0l0-7c0-0.3-0.1-0.5-0.3-0.7C19.1,5.1,18.8,5,18.6,5l-1,0L17.6,13z"/>
</svg>
