<svg width="24" height="25" viewBox="0 0 24 25" fill="none" xmlns="http://www.w3.org/2000/svg">
<g id="Icons">
<path id="Vector (Stroke)" fill-rule="evenodd" clip-rule="evenodd" d="M10 3.5C9.73478 3.5 9.48043 3.60536 9.29289 3.79289C9.10536 3.98043 9 4.23478 9 4.5V5.5H15V4.5C15 4.23478 14.8946 3.98043 14.7071 3.79289C14.5196 3.60536 14.2652 3.5 14 3.5H10ZM17 5.5V4.5C17 3.70435 16.6839 2.94129 16.1213 2.37868C15.5587 1.81607 14.7956 1.5 14 1.5H10C9.20435 1.5 8.44129 1.81607 7.87868 2.37868C7.31607 2.94129 7 3.70435 7 4.5V5.5H3C2.44772 5.5 2 5.94772 2 6.5C2 7.05228 2.44772 7.5 3 7.5H4V20.5C4 21.2957 4.31607 22.0587 4.87868 22.6213C5.44129 23.1839 6.20435 23.5 7 23.5H17C17.7957 23.5 18.5587 23.1839 19.1213 22.6213C19.6839 22.0587 20 21.2957 20 20.5V7.5H21C21.5523 7.5 22 7.05228 22 6.5C22 5.94772 21.5523 5.5 21 5.5H17ZM6 7.5V20.5C6 20.7652 6.10536 21.0196 6.29289 21.2071C6.48043 21.3946 6.73478 21.5 7 21.5H17C17.2652 21.5 17.5196 21.3946 17.7071 21.2071C17.8946 21.0196 18 20.7652 18 20.5V7.5H6ZM10 10.5C10.5523 10.5 11 10.9477 11 11.5V17.5C11 18.0523 10.5523 18.5 10 18.5C9.44772 18.5 9 18.0523 9 17.5V11.5C9 10.9477 9.44772 10.5 10 10.5ZM13 11.5C13 10.9477 13.4477 10.5 14 10.5C14.5523 10.5 15 10.9477 15 11.5V17.5C15 18.0523 14.5523 18.5 14 18.5C13.4477 18.5 13 18.0523 13 17.5V11.5Z" fill="#006B59"/>
</g>
</svg>
