<svg width="46" height="62" viewBox="0 0 46 62" fill="none" xmlns="http://www.w3.org/2000/svg">
<path d="M45.9993 23.2423C46.15 41.7906 23.075 62 23.075 62C23.075 62 0 41.7906 0 23.2423C0 10.4063 10.2968 0 22.9989 0C35.7009 0 45.8947 10.407 45.9993 23.2423Z" fill="#006B59"/>
<path d="M19.9765 24.8018C19.8296 24.8018 19.6882 24.8985 19.6636 25.0921L19.286 27.3412C19.2135 27.7784 18.7497 28.3587 17.7161 28.4387C15.6802 28.5947 15.9018 28.3434 14.5414 28.3244C13.7916 28.0866 13.1886 27.5976 12.6886 26.8193C12.578 26.6407 12.3549 26.5687 12.1604 26.6487C11.9066 26.7495 11.8114 27.0578 11.9619 27.2835C12.3205 27.843 12.7575 28.2959 13.2571 28.6367C12.5341 29.053 12.6333 29.759 12.3795 30.2802C12.0476 30.7882 11.641 31.1812 10.7388 31.4537C10.6531 31.4727 10.5806 31.5242 10.5312 31.5965L9.90918 32.6005L10.6953 33.3847C10.8802 33.202 10.9106 32.9164 10.7714 32.698L11.1264 32.1633L12.6831 32.2415L12.0593 32.7265C11.9923 32.778 11.9447 32.8522 11.9315 32.938L11.737 34.0505L12.7004 34.6042C12.8531 34.3397 12.7634 34.0008 12.496 33.847C12.4923 33.8452 12.4868 33.843 12.4828 33.8408L12.7004 33.1316C13.4674 33.0476 13.8736 32.8825 14.8047 31.9559C16.1267 30.6356 16.3483 32.4866 19.145 32.0892L20.1809 33.1999L20.694 34.3584C20.734 34.446 20.8087 34.5143 20.9017 34.541L21.8633 35.0961C22.0178 34.8302 21.9263 34.4917 21.6611 34.3397C21.6094 34.3109 21.5541 34.2901 21.4951 34.2787L20.9684 32.266L21.7772 32.3193L22.4548 33.0574L23.4164 33.6111C23.5709 33.3467 23.4794 33.0077 23.2138 32.854C23.1588 32.8233 23.0991 32.8007 23.0383 32.7893L22.3248 31.6118C22.2885 31.5676 22.2427 31.534 22.1893 31.5129L21.4417 31.2123C21.2849 31.1495 21.1592 31.0388 21.0581 30.9004C19.9076 30.6206 18.8908 29.995 18.2344 29.2776L18.4175 29.11C19.2952 29.9683 20.6765 30.6586 22.1629 30.7101C23.7541 30.7649 25.4574 30.0271 26.5757 27.992L25.9592 27.6549C24.9478 29.4979 23.5537 30.0596 22.1856 30.0118C21.6819 29.9946 21.1819 29.8839 20.7146 29.7152C20.7105 29.5724 20.7164 29.4351 20.7336 29.3193C20.7948 28.9142 20.9893 28.6611 21.4622 28.6575L22.5574 28.6476C23.1241 28.5775 23.3317 28.0998 23.431 27.8262C23.5475 27.5067 23.431 27.2974 23.1907 27.2324C22.5325 27.0574 22.3665 26.9793 22.09 26.5461C21.8479 26.1637 21.6303 25.9771 21.2871 25.9256L21.1515 25.4234C21.0658 25.098 20.6365 25.0961 20.5926 25.4234L20.5354 25.8573L20.3292 25.0921C20.2776 24.8985 20.123 24.8018 19.9765 24.8018Z" fill="white"/>
<path fill-rule="evenodd" clip-rule="evenodd" d="M32.5125 17.8519C32.0221 18.9856 30.7056 19.5053 29.5668 19.0181C28.4335 18.5291 27.9126 17.2146 28.4012 16.0842C28.8935 14.9527 30.21 14.4319 31.343 14.9188C32.4821 15.4078 33.0026 16.7201 32.5125 17.8519Z" fill="white"/>
<path d="M29.7121 20.2109C29.5118 20.2109 29.3151 20.2719 29.1513 20.3859L26.3946 22.3245C26.1371 22.5053 25.9825 22.8019 25.9843 23.116L25.6257 26.1708C25.4843 27.3694 27.3733 27.6131 27.5546 26.3004L27.9268 23.62L28.7088 23.0721V26.8541C28.7088 27.3943 28.9876 27.5995 29.3348 27.9531L31.8245 30.4925L32.6982 33.9282C33.0341 35.4578 35.3406 34.8735 34.9055 33.3694L33.9549 29.6379C33.9051 29.4443 33.8062 29.2675 33.6648 29.1247L32.1579 27.586L32.1824 21.3694C32.1824 20.8694 31.856 20.4275 31.3777 20.2814C31.263 20.2358 31.1392 20.2109 31.0172 20.2109H29.7121Z" fill="white"/>
<path d="M34.4872 22.3318C34.3539 22.3183 34.2048 22.3333 34.0465 22.3852L32.8447 22.7446V24.7668L34.6018 24.2435C35.7311 23.9447 35.4297 22.4272 34.4872 22.3318Z" fill="white"/>
<path d="M29.292 28.8633L28.4144 30.1299L25.8291 30.944C24.6939 31.3016 25.2932 33.4929 26.8305 32.9853L29.6865 32.0415C29.862 31.956 30.0111 31.8249 30.1217 31.665L30.9173 30.5178L29.292 28.8633Z" fill="white"/>
</svg>
