<svg width="366" height="90" viewBox="0 0 366 90" fill="none" xmlns="http://www.w3.org/2000/svg">
<g filter="url(#filter0_d_3550_18419)">
<rect x="7" y="7" width="350" height="74" rx="10" fill="white" shape-rendering="crispEdges"/>
<circle cx="43" cy="44" r="20" fill="#E4EEE9"/>
<path d="M51 38L40 49L35 44" stroke="#058A55" stroke-width="2" stroke-linecap="round" stroke-linejoin="round"/>
<path d="M85.2891 38H80.4688V26.7266H85.1797C86.2474 26.7266 87.0859 26.9792 87.6953 27.4844C88.3047 27.9844 88.6094 28.6693 88.6094 29.5391C88.6094 30.1328 88.4167 30.6615 88.0312 31.125C87.6458 31.5885 87.1693 31.8646 86.6016 31.9531V32.0938C87.362 32.1667 87.9792 32.4531 88.4531 32.9531C88.9271 33.4479 89.1641 34.0625 89.1641 34.7969C89.1641 35.7865 88.8177 36.5677 88.125 37.1406C87.4375 37.7135 86.4922 38 85.2891 38ZM82.4844 28.3281V31.4688H84.4297C85.1432 31.4688 85.6849 31.3359 86.0547 31.0703C86.4297 30.7995 86.6172 30.4089 86.6172 29.8984C86.6172 29.4036 86.4479 29.0182 86.1094 28.7422C85.7708 28.4661 85.2969 28.3281 84.6875 28.3281H82.4844ZM82.4844 36.3984H84.8281C85.5729 36.3984 86.138 36.25 86.5234 35.9531C86.9089 35.651 87.1016 35.2135 87.1016 34.6406C87.1016 34.0781 86.901 33.651 86.5 33.3594C86.1042 33.0677 85.5208 32.9219 84.75 32.9219H82.4844V36.3984ZM98.85 38V29.4531H100.78V38H98.85ZM94.3031 33.5547H92.8422V36.4531H94.3031C94.7823 36.4531 95.1625 36.3203 95.4438 36.0547C95.7302 35.7891 95.8734 35.4375 95.8734 35C95.8734 34.5625 95.7302 34.2135 95.4438 33.9531C95.1573 33.6875 94.7771 33.5547 94.3031 33.5547ZM90.9047 38V29.4531H92.8422V32.0156H94.5375C95.5323 32.0156 96.324 32.2865 96.9125 32.8281C97.5063 33.3698 97.8031 34.0964 97.8031 35.0078C97.8031 35.9193 97.5063 36.6458 96.9125 37.1875C96.324 37.7292 95.5323 38 94.5375 38H90.9047ZM109.948 38.1719C109.469 38.1719 109.021 38.1172 108.605 38.0078C108.188 37.8984 107.813 37.737 107.48 37.5234C107.146 37.3047 106.873 37.0208 106.659 36.6719C106.451 36.3229 106.326 35.9219 106.284 35.4688H108.183C108.266 35.8385 108.461 36.1198 108.769 36.3125C109.081 36.5 109.474 36.5938 109.948 36.5938C110.464 36.5938 110.873 36.4896 111.175 36.2812C111.477 36.0677 111.628 35.7812 111.628 35.4219C111.628 34.6667 111.071 34.2891 109.956 34.2891H108.706V32.9062H109.917C110.87 32.9062 111.347 32.5625 111.347 31.875C111.347 31.5625 111.224 31.3099 110.98 31.1172C110.735 30.9245 110.381 30.8281 109.917 30.8281C109.469 30.8281 109.097 30.9219 108.8 31.1094C108.508 31.2969 108.336 31.5547 108.284 31.8828H106.433C106.521 31.0859 106.87 30.4531 107.48 29.9844C108.094 29.5156 108.904 29.2812 109.909 29.2812C110.967 29.2812 111.787 29.4948 112.37 29.9219C112.954 30.3438 113.245 30.9271 113.245 31.6719C113.245 32.0938 113.123 32.4609 112.878 32.7734C112.633 33.0859 112.313 33.2943 111.917 33.3984V33.5391C112.454 33.6693 112.86 33.901 113.136 34.2344C113.417 34.5677 113.558 34.974 113.558 35.4531C113.558 36.276 113.23 36.9349 112.573 37.4297C111.922 37.9245 111.047 38.1719 109.948 38.1719ZM118.197 36.6172C118.78 36.6172 119.267 36.4505 119.658 36.1172C120.048 35.7786 120.244 35.362 120.244 34.8672V34.1875L118.314 34.3125C117.252 34.3802 116.72 34.7656 116.72 35.4688C116.72 35.8229 116.856 36.1042 117.127 36.3125C117.403 36.5156 117.759 36.6172 118.197 36.6172ZM117.627 38.1406C116.793 38.1406 116.114 37.9062 115.588 37.4375C115.061 36.9688 114.798 36.349 114.798 35.5781C114.798 34.8073 115.077 34.2031 115.634 33.7656C116.197 33.3281 116.999 33.0781 118.041 33.0156L120.244 32.8828V32.1641C120.244 31.7422 120.106 31.4193 119.83 31.1953C119.554 30.9714 119.155 30.8594 118.634 30.8594C118.186 30.8594 117.817 30.9375 117.525 31.0938C117.233 31.2448 117.043 31.4635 116.955 31.75H115.127C115.205 30.9948 115.569 30.3958 116.22 29.9531C116.877 29.5052 117.713 29.2812 118.728 29.2812C119.822 29.2812 120.666 29.5339 121.259 30.0391C121.858 30.5443 122.158 31.2526 122.158 32.1641V38H120.291V36.8281H120.158C119.918 37.2396 119.574 37.5625 119.127 37.7969C118.684 38.026 118.184 38.1406 117.627 38.1406ZM129.797 38V31H126.18V38H124.242V29.4531H131.734V38H129.797ZM135.772 38H133.858V29.4531H135.772V35.1094H135.905L139.623 29.4531H141.53V38H139.623V32.3047H139.483L135.772 38ZM151.036 32.3281H149.192C149.098 31.8958 148.89 31.5521 148.567 31.2969C148.244 31.0365 147.825 30.9062 147.309 30.9062C146.643 30.9062 146.122 31.151 145.747 31.6406C145.377 32.1302 145.192 32.8177 145.192 33.7031C145.192 34.599 145.38 35.2969 145.755 35.7969C146.13 36.2969 146.648 36.5469 147.309 36.5469C147.815 36.5469 148.229 36.4297 148.552 36.1953C148.88 35.9609 149.093 35.6224 149.192 35.1797H151.036C150.927 36.0911 150.544 36.8177 149.888 37.3594C149.236 37.901 148.38 38.1719 147.317 38.1719C146.031 38.1719 145.028 37.7786 144.309 36.9922C143.591 36.2057 143.231 35.1094 143.231 33.7031C143.231 32.3125 143.591 31.2292 144.309 30.4531C145.028 29.6719 146.028 29.2812 147.309 29.2812C148.382 29.2812 149.244 29.5599 149.895 30.1172C150.552 30.6693 150.932 31.4062 151.036 32.3281ZM155.566 36.6172C156.149 36.6172 156.636 36.4505 157.027 36.1172C157.417 35.7786 157.613 35.362 157.613 34.8672V34.1875L155.683 34.3125C154.62 34.3802 154.089 34.7656 154.089 35.4688C154.089 35.8229 154.224 36.1042 154.495 36.3125C154.771 36.5156 155.128 36.6172 155.566 36.6172ZM154.995 38.1406C154.162 38.1406 153.482 37.9062 152.956 37.4375C152.43 36.9688 152.167 36.349 152.167 35.5781C152.167 34.8073 152.446 34.2031 153.003 33.7656C153.566 33.3281 154.368 33.0781 155.409 33.0156L157.613 32.8828V32.1641C157.613 31.7422 157.474 31.4193 157.198 31.1953C156.922 30.9714 156.524 30.8594 156.003 30.8594C155.555 30.8594 155.185 30.9375 154.894 31.0938C154.602 31.2448 154.412 31.4635 154.323 31.75H152.495C152.573 30.9948 152.938 30.3958 153.589 29.9531C154.245 29.5052 155.081 29.2812 156.097 29.2812C157.191 29.2812 158.034 29.5339 158.628 30.0391C159.227 30.5443 159.527 31.2526 159.527 32.1641V38H157.659V36.8281H157.527C157.287 37.2396 156.943 37.5625 156.495 37.7969C156.053 38.026 155.553 38.1406 154.995 38.1406ZM167.244 38V34.375H163.548V38H161.611V29.4531H163.548V32.8281H167.244V29.4531H169.181V38H167.244ZM179.25 38V29.4531H181.18V38H179.25ZM174.703 33.5547H173.242V36.4531H174.703C175.182 36.4531 175.562 36.3203 175.844 36.0547C176.13 35.7891 176.273 35.4375 176.273 35C176.273 34.5625 176.13 34.2135 175.844 33.9531C175.557 33.6875 175.177 33.5547 174.703 33.5547ZM171.305 38V29.4531H173.242V32.0156H174.938C175.932 32.0156 176.724 32.2865 177.312 32.8281C177.906 33.3698 178.203 34.0964 178.203 35.0078C178.203 35.9193 177.906 36.6458 177.312 37.1875C176.724 37.7292 175.932 38 174.938 38H171.305ZM192.794 38V34.375H189.098V38H187.161V29.4531H189.098V32.8281H192.794V29.4531H194.731V38H192.794ZM199.784 36.6172C200.368 36.6172 200.855 36.4505 201.245 36.1172C201.636 35.7786 201.831 35.362 201.831 34.8672V34.1875L199.902 34.3125C198.839 34.3802 198.308 34.7656 198.308 35.4688C198.308 35.8229 198.443 36.1042 198.714 36.3125C198.99 36.5156 199.347 36.6172 199.784 36.6172ZM199.214 38.1406C198.381 38.1406 197.701 37.9062 197.175 37.4375C196.649 36.9688 196.386 36.349 196.386 35.5781C196.386 34.8073 196.665 34.2031 197.222 33.7656C197.784 33.3281 198.586 33.0781 199.628 33.0156L201.831 32.8828V32.1641C201.831 31.7422 201.693 31.4193 201.417 31.1953C201.141 30.9714 200.743 30.8594 200.222 30.8594C199.774 30.8594 199.404 30.9375 199.113 31.0938C198.821 31.2448 198.631 31.4635 198.542 31.75H196.714C196.792 30.9948 197.157 30.3958 197.808 29.9531C198.464 29.5052 199.3 29.2812 200.316 29.2812C201.409 29.2812 202.253 29.5339 202.847 30.0391C203.446 30.5443 203.745 31.2526 203.745 32.1641V38H201.878V36.8281H201.745C201.506 37.2396 201.162 37.5625 200.714 37.7969C200.271 38.026 199.771 38.1406 199.214 38.1406ZM215.25 38V31H211.633V38H209.695V29.4531H217.188V38H215.25ZM223.967 29.3125C225.051 29.3125 225.907 29.7057 226.538 30.4922C227.173 31.2786 227.491 32.3568 227.491 33.7266C227.491 35.0911 227.176 36.1693 226.545 36.9609C225.92 37.7474 225.069 38.1406 223.991 38.1406C223.381 38.1406 222.847 38.0156 222.389 37.7656C221.936 37.5104 221.6 37.1562 221.381 36.7031H221.248V40.8438H219.311V29.4531H221.178V30.8672H221.311C221.556 30.3828 221.913 30.0026 222.381 29.7266C222.855 29.4505 223.384 29.3125 223.967 29.3125ZM223.358 36.4922C224.03 36.4922 224.553 36.2474 224.928 35.7578C225.308 35.2682 225.498 34.5911 225.498 33.7266C225.498 32.862 225.308 32.1849 224.928 31.6953C224.553 31.2057 224.032 30.9609 223.366 30.9609C222.704 30.9609 222.181 31.2083 221.795 31.7031C221.41 32.1979 221.215 32.8724 221.209 33.7266C221.215 34.5807 221.407 35.2552 221.788 35.75C222.173 36.2448 222.696 36.4922 223.358 36.4922ZM231.122 38H229.208V29.4531H231.122V35.1094H231.255L234.973 29.4531H236.88V38H234.973V32.3047H234.833L231.122 38ZM242.589 30.8203C242.011 30.8203 241.534 31.0104 241.159 31.3906C240.784 31.7708 240.576 32.2734 240.534 32.8984H244.558C244.537 32.263 244.349 31.7578 243.995 31.3828C243.641 31.0078 243.172 30.8203 242.589 30.8203ZM244.573 35.6484H246.409C246.227 36.4297 245.797 37.0469 245.12 37.5C244.448 37.9479 243.613 38.1719 242.613 38.1719C241.357 38.1719 240.37 37.7812 239.652 37C238.938 36.2135 238.581 35.1328 238.581 33.7578C238.581 32.3828 238.941 31.2943 239.659 30.4922C240.378 29.6849 241.357 29.2812 242.597 29.2812C243.816 29.2812 244.769 29.6641 245.456 30.4297C246.149 31.1901 246.495 32.2448 246.495 33.5938V34.2188H240.527V34.3203C240.553 35.0339 240.756 35.599 241.136 36.0156C241.521 36.4271 242.032 36.6328 242.667 36.6328C243.646 36.6328 244.282 36.3047 244.573 35.6484ZM241.652 27.9844C241.438 28.1927 241.172 28.2969 240.855 28.2969C240.537 28.2969 240.271 28.1927 240.058 27.9844C239.844 27.7708 239.738 27.5078 239.738 27.1953C239.738 26.8828 239.844 26.6224 240.058 26.4141C240.271 26.2005 240.537 26.0938 240.855 26.0938C241.172 26.0938 241.438 26.2005 241.652 26.4141C241.865 26.6224 241.972 26.8828 241.972 27.1953C241.972 27.5078 241.865 27.7708 241.652 27.9844ZM245.128 27.9844C244.915 28.1927 244.649 28.2969 244.331 28.2969C244.014 28.2969 243.748 28.1927 243.534 27.9844C243.321 27.7708 243.214 27.5078 243.214 27.1953C243.214 26.8828 243.321 26.6224 243.534 26.4141C243.748 26.2005 244.014 26.0938 244.331 26.0938C244.649 26.0938 244.915 26.2005 245.128 26.4141C245.342 26.6224 245.448 26.8828 245.448 27.1953C245.448 27.5078 245.342 27.7708 245.128 27.9844ZM250.041 38H248.189V29.4531H250.658L253.189 35.3359H253.33L255.869 29.4531H258.291V38H256.431V32.1875H256.291L253.931 37.6016H252.541L250.189 32.1875H250.041V38ZM83.8516 51.8125H82.1719V53.9453H83.6953C84.6484 53.9453 85.125 53.5859 85.125 52.8672C85.125 52.5391 85.0182 52.2812 84.8047 52.0938C84.5911 51.9062 84.2734 51.8125 83.8516 51.8125ZM83.8125 55.2188H82.1719V57.6406H83.9844C84.4635 57.6406 84.8307 57.5365 85.0859 57.3281C85.3411 57.1198 85.4688 56.8203 85.4688 56.4297C85.4688 55.6224 84.9167 55.2188 83.8125 55.2188ZM80.2578 59V50.4531H84.2969C85.151 50.4531 85.8177 50.6484 86.2969 51.0391C86.7812 51.4245 87.0234 51.9505 87.0234 52.6172C87.0234 53.0547 86.8802 53.4479 86.5938 53.7969C86.3125 54.1406 85.9609 54.349 85.5391 54.4219V54.5625C86.0964 54.6198 86.5469 54.8333 86.8906 55.2031C87.2344 55.5677 87.4062 56.0104 87.4062 56.5312C87.4062 57.2812 87.1328 57.8802 86.5859 58.3281C86.0391 58.776 85.2943 59 84.3516 59H80.2578ZM96.6297 51.8125H94.95V53.9453H96.4734C97.4266 53.9453 97.9031 53.5859 97.9031 52.8672C97.9031 52.5391 97.7964 52.2812 97.5828 52.0938C97.3693 51.9062 97.0516 51.8125 96.6297 51.8125ZM96.5906 55.2188H94.95V57.6406H96.7625C97.2417 57.6406 97.6089 57.5365 97.8641 57.3281C98.1193 57.1198 98.2469 56.8203 98.2469 56.4297C98.2469 55.6224 97.6948 55.2188 96.5906 55.2188ZM93.0359 59V50.4531H97.075C97.9292 50.4531 98.5958 50.6484 99.075 51.0391C99.5594 51.4245 99.8016 51.9505 99.8016 52.6172C99.8016 53.0547 99.6583 53.4479 99.3719 53.7969C99.0906 54.1406 98.7391 54.349 98.3172 54.4219V54.5625C98.8745 54.6198 99.325 54.8333 99.6687 55.2031C100.012 55.5677 100.184 56.0104 100.184 56.5312C100.184 57.2812 99.9109 57.8802 99.3641 58.3281C98.8172 58.776 98.0724 59 97.1297 59H93.0359ZM105.433 51.8203C104.855 51.8203 104.378 52.0104 104.003 52.3906C103.628 52.7708 103.42 53.2734 103.378 53.8984H107.402C107.381 53.263 107.193 52.7578 106.839 52.3828C106.485 52.0078 106.016 51.8203 105.433 51.8203ZM107.417 56.6484H109.253C109.071 57.4297 108.641 58.0469 107.964 58.5C107.292 58.9479 106.456 59.1719 105.456 59.1719C104.201 59.1719 103.214 58.7812 102.495 58C101.782 57.2135 101.425 56.1328 101.425 54.7578C101.425 53.3828 101.784 52.2943 102.503 51.4922C103.222 50.6849 104.201 50.2812 105.441 50.2812C106.659 50.2812 107.612 50.6641 108.3 51.4297C108.993 52.1901 109.339 53.2448 109.339 54.5938V55.2188H103.37V55.3203C103.396 56.0339 103.599 56.599 103.98 57.0156C104.365 57.4271 104.876 57.6328 105.511 57.6328C106.49 57.6328 107.126 57.3047 107.417 56.6484ZM117.103 50.4531V52H114.47V59H112.533V52H109.9V50.4531H117.103ZM120.867 55.3281H120.477V59H118.539V50.4531H120.477V53.875H120.852L123.719 50.4531H125.953L122.445 54.3984L126.117 59H123.766L120.867 55.3281ZM129.827 55.0234C129.79 55.5391 129.735 55.9974 129.662 56.3984C129.59 56.7995 129.483 57.1719 129.342 57.5156C129.207 57.8594 129.037 58.1458 128.834 58.375C128.631 58.599 128.381 58.7734 128.084 58.8984C127.787 59.0234 127.444 59.0859 127.053 59.0859C126.798 59.0859 126.582 59.0547 126.405 58.9922V57.2734C126.54 57.3099 126.696 57.3281 126.873 57.3281C127.264 57.3281 127.548 57.1198 127.725 56.7031C127.907 56.2865 128.022 55.6901 128.069 54.9141L128.35 50.4531H134.475V59H132.545V52H130.037L129.827 55.0234ZM138.513 59H136.598V50.4531H138.513V56.1094H138.645L142.364 50.4531H144.27V59H142.364V53.3047H142.223L138.513 59ZM152.019 59V55.375H148.323V59H146.386V50.4531H148.323V53.8281H152.019V50.4531H153.956V59H152.019ZM157.994 59H156.08V50.4531H157.994V56.1094H158.127L161.845 50.4531H163.752V59H161.845V53.3047H161.705L157.994 59ZM168.195 55.3281H167.805V59H165.867V50.4531H167.805V53.875H168.18L171.047 50.4531H173.281L169.773 54.3984L173.445 59H171.094L168.195 55.3281ZM175.412 62.1016C175.011 62.1016 174.756 62.0911 174.647 62.0703V60.4844C174.746 60.5052 174.923 60.5156 175.178 60.5156C175.59 60.5156 175.915 60.4297 176.155 60.2578C176.399 60.0859 176.584 59.8047 176.709 59.4141L176.811 59.0391L173.756 50.4531H175.881L177.881 57.125H178.014L180.006 50.4531H182.053L178.967 59.2734C178.608 60.3307 178.165 61.0651 177.639 61.4766C177.118 61.8932 176.376 62.1016 175.412 62.1016Z" fill="#191C1B"/>
</g>
<defs>
<filter id="filter0_d_3550_18419" x="0" y="0" width="366" height="90" filterUnits="userSpaceOnUse" color-interpolation-filters="sRGB">
<feFlood flood-opacity="0" result="BackgroundImageFix"/>
<feColorMatrix in="SourceAlpha" type="matrix" values="0 0 0 0 0 0 0 0 0 0 0 0 0 0 0 0 0 0 127 0" result="hardAlpha"/>
<feOffset dx="1" dy="1"/>
<feGaussianBlur stdDeviation="4"/>
<feComposite in2="hardAlpha" operator="out"/>
<feColorMatrix type="matrix" values="0 0 0 0 0.427257 0 0 0 0 0.479167 0 0 0 0 0.458403 0 0 0 0.15 0"/>
<feBlend mode="normal" in2="BackgroundImageFix" result="effect1_dropShadow_3550_18419"/>
<feBlend mode="normal" in="SourceGraphic" in2="effect1_dropShadow_3550_18419" result="shape"/>
</filter>
</defs>
</svg>
