<svg width="64" height="64" viewBox="0 0 64 64" fill="none" xmlns="http://www.w3.org/2000/svg">
<g id="Frame" clip-path="url(#clip0_3409_30915)">
<g id="Group">
<g id="Capa 1">
<path id="Vector" d="M64 31.9969C64 49.6677 49.6725 63.9939 32 63.9939C14.3275 63.9939 0 49.6738 0 31.9969C0 14.3201 14.3275 0 32 0C49.6725 0 64 14.3262 64 31.9969Z" fill="#B5CFC7"/>
<g id="Group_2">
<g id="Group_3">
<path id="Vector_2" d="M40.096 24.0114C40.096 24.0114 41.3863 22.1832 42.4503 22.9597C42.4503 22.9597 43.0985 23.614 42.6643 25.2526C42.5848 25.5461 42.5237 25.8518 42.4686 26.1515C42.4258 26.3838 42.3891 26.6284 42.3769 26.8668C42.3647 27.1114 42.4381 27.3743 42.3708 27.6189C42.2363 28.1203 41.9917 28.6584 41.5514 28.958C41.3618 29.0864 41.1478 29.1842 40.9154 29.2026C40.8176 29.2087 40.0654 29.1292 40.0654 29.0191L40.1021 24.0114H40.096Z" fill="#F6BD91"/>
<path id="Vector_3" d="M40.0896 24.5624C40.0896 24.5624 41.1292 23.0888 41.9914 23.7125C41.9914 23.7125 42.5112 24.2383 42.1626 25.5652C42.1015 25.8036 42.0464 26.0482 42.0036 26.2928C41.967 26.4823 41.9364 26.678 41.9303 26.8675C41.918 27.0632 41.9792 27.2772 41.9303 27.4729C41.8202 27.8764 41.6245 28.3105 41.2698 28.5551C41.117 28.6591 40.9457 28.7386 40.7562 28.7508C40.6767 28.7508 40.0713 28.6896 40.0713 28.604L40.1019 24.5685L40.0896 24.5624Z" fill="#EBB58B"/>
</g>
<g id="Group_4">
<path id="Vector_4" d="M23.2003 24.0114C23.2003 24.0114 21.91 22.1832 20.846 22.9597C20.846 22.9597 20.204 23.614 20.632 25.2526C20.7115 25.5461 20.7727 25.8518 20.8277 26.1515C20.8705 26.3838 20.9072 26.6284 20.9194 26.8668C20.9316 27.1114 20.8583 27.3743 20.9255 27.6189C21.0601 28.1203 21.3047 28.6584 21.7449 28.958C21.9345 29.0864 22.1485 29.1842 22.3809 29.2026C22.4787 29.2087 23.2309 29.1292 23.2309 29.0191L23.1942 24.0114H23.2003Z" fill="#F6BD91"/>
<path id="Vector_5" d="M23.2065 24.5624C23.2065 24.5624 22.1669 23.0888 21.3047 23.7125C21.3047 23.7125 20.7849 24.2383 21.1335 25.5652C21.1946 25.8036 21.2497 26.0482 21.2925 26.2928C21.3292 26.4823 21.3597 26.678 21.3658 26.8675C21.3781 27.0632 21.3169 27.2772 21.3658 27.4729C21.4759 27.8764 21.6716 28.3105 22.0263 28.5551C22.1792 28.6591 22.3504 28.7386 22.5399 28.7508C22.6194 28.7508 23.2248 28.6896 23.2248 28.604L23.1942 24.5685L23.2065 24.5624Z" fill="#EBB58B"/>
</g>
<path id="Vector_6" d="M27.1564 36.2037C27.1564 36.2037 28.1532 40.4961 26.0312 42.4344H38.0106C38.0106 42.4344 35.4973 39.0898 36.8549 35.7207L27.1625 36.2037H27.1564Z" fill="#F6BD91"/>
<path id="Vector_7" d="M27.3524 39.249C27.7866 39.5914 28.2758 39.8421 28.8078 40.0439C30.0369 40.5208 31.3333 40.747 32.6297 40.4169C33.8649 40.105 35.0757 39.3713 35.7851 38.289C36.1153 37.7815 36.3232 37.2129 36.5739 36.6626C36.6412 36.3507 36.7207 36.0328 36.8491 35.7148L27.1567 36.1979C27.1567 36.1979 27.4931 37.6531 27.3585 39.249H27.3524Z" fill="#E3B087"/>
<path id="Vector_8" d="M41.4354 21.21C42.2792 13.5914 37.3383 8.35742 31.4128 8.35742C25.4873 8.35742 21.0111 13.2979 21.8611 21.5341C22.2158 24.9949 21.7755 31.1888 24.6863 34.1299C26.7898 36.2577 25.9093 35.4383 28.7956 37.4133C28.7956 37.4133 31.5901 39.4372 34.5254 37.719C36.8674 35.9948 39.6192 35.1754 40.6465 31.6168C41.3987 29.0182 41.1418 23.8576 41.4415 21.2039L41.4354 21.21Z" fill="#F6BD91"/>
<path id="Vector_9" d="M47.0245 44.4034L37.1854 41.5602L32.0976 41.2056V41.1934H31.9998H31.902V41.2056L26.8142 41.5602L16.9752 44.4034C16.9752 44.4034 11.7957 46.5068 12.2543 52.6274H51.7453C52.1978 46.5007 47.0183 44.4034 47.0183 44.4034H47.0245Z" fill="#F6BD91"/>
<g id="Group_5">
<path id="Vector_10" d="M26.0253 13.506C26.0253 13.506 21.9038 17.3337 21.9772 23.2219C21.9772 23.2219 18.2592 13.023 25.1325 8.35156C25.1325 8.35156 25.4627 13.0964 26.0253 13.4999V13.506Z" fill="#432918"/>
<path id="Vector_11" d="M22.9432 18.2148C22.9432 18.2148 22.5885 25.0386 23.7748 29.1964L22.3928 28.585L21.8608 22.2443C21.8608 22.2443 21.9403 18.8202 22.9432 18.2148Z" fill="#432918"/>
<path id="Vector_12" d="M40.1753 16.7715C40.1753 16.7715 40.7012 25.0382 39.521 29.1961L40.903 28.5846L41.435 22.2439C41.435 22.2439 41.1782 17.3768 40.1753 16.7715Z" fill="#432918"/>
</g>
<path id="Vector_13" d="M37.4608 41.553L47.0186 44.3962C47.0186 44.3962 52.198 46.4996 51.7455 52.6202H12.2546C11.8021 46.4935 16.9815 44.3901 16.9815 44.3901L26.8206 41.5469L32.0184 43.797L37.4669 41.5469L37.4608 41.553Z" fill="#6EBEBF"/>
<path id="Vector_14" d="M25.6278 12.4548C25.6278 12.4548 24.9796 16.0868 36.8489 14.7783C36.8489 14.7783 39.7291 15.4937 40.4812 17.7989L41.1783 23.094C41.1783 23.094 44.8963 15.084 40.4812 8.84729C40.4812 8.84729 38.2492 6.5238 32.5133 6.07133C32.5133 6.07133 26.7835 5.34371 23.5059 9.80726L25.6278 12.4548Z" fill="#432918"/>
<path id="Vector_15" d="M29.5723 43.8457H34.4582L33.015 48.6027H30.9359L29.5723 43.8457Z" fill="#E6332A"/>
<path id="Vector_16" d="M34.446 52.627L33.0151 48.084H30.9359L29.8169 52.627H34.446Z" fill="#B02B1E"/>
<path id="Vector_17" d="M40.3593 42.2932L47.0247 44.4027C47.0247 44.4027 52.2041 46.5061 51.7516 52.6267H12.2546C11.8021 46.5 16.9815 44.3966 16.9815 44.3966L23.6591 42.5011L27.8357 52.6205H36.1766L40.3532 42.2871L40.3593 42.2932Z" fill="white"/>
<g id="Group_6">
<g id="Vector_18" style="mix-blend-mode:multiply">
<path d="M27.1565 41.2246L32.018 43.8477L27.1565 48.6048L23.6587 42.5086L27.1565 41.2246Z" fill="#B2B2B2"/>
</g>
<path id="Vector_19" d="M27.1565 40.4844L32.018 43.8473L27.1565 47.8645L23.6587 42.5083L27.1565 40.4844Z" fill="#6EBEBF"/>
</g>
<g id="Group_7">
<g id="Vector_20" style="mix-blend-mode:multiply">
<path d="M36.8615 41.2246L32 43.8477L36.8615 48.6048L40.3593 42.5086L36.8615 41.2246Z" fill="#B2B2B2"/>
</g>
<path id="Vector_21" d="M36.8615 40.4844L32 43.8473L36.8615 47.8645L40.3593 42.5083L36.8615 40.4844Z" fill="#6EBEBF"/>
</g>
<path id="Vector_22" d="M23.6588 42.5078L27.8353 52.6272H25.7501L18.9502 43.8469L23.6588 42.5078Z" fill="#CECECE"/>
<path id="Vector_23" d="M40.359 42.293L36.1763 52.6264H38.2676L45.0675 43.846L40.359 42.293Z" fill="#CECECE"/>
</g>
</g>
</g>
</g>
<defs>
<clipPath id="clip0_3409_30915">
<rect width="64" height="64" fill="white"/>
</clipPath>
</defs>
</svg>
