<svg width="24" height="25" viewBox="0 0 24 25" fill="none" xmlns="http://www.w3.org/2000/svg">
<g id="Icons/notification">
<path id="Vector" d="M12.0247 3.5C8.72343 3.5 6.04055 6.21073 6.04055 9.54624V12.4585C6.04055 13.0732 5.78124 14.0104 5.47206 14.5344L4.3251 16.4591C3.61698 17.6482 4.10569 18.9683 5.40224 19.4117C9.70083 20.8628 14.3385 20.8628 18.6371 19.4117C19.8439 19.0086 20.3725 17.5676 19.7142 16.4591L18.5673 14.5344C18.2681 14.0104 18.0088 13.0732 18.0088 12.4585V9.54624C18.0088 6.22081 15.3159 3.5 12.0247 3.5Z" stroke="#6D7A75" stroke-width="1.5" stroke-miterlimit="10" stroke-linecap="round"/>
<path id="Vector_2" d="M13.8699 3.69994C12.6606 3.35553 11.3792 3.35553 10.1699 3.69994C10.4599 2.95994 11.1799 2.43994 12.0199 2.43994C12.8599 2.43994 13.5799 2.95994 13.8699 3.69994Z" stroke="#6D7A75" stroke-width="1.5" stroke-miterlimit="10" stroke-linecap="round" stroke-linejoin="round"/>
<path id="Vector_3" d="M15 20.5C15 21.6 13.65 22.5 12 22.5C11.18 22.5 10.42 22.2733 9.88 21.9133C9.31816 21.5382 9.00179 21.0301 9 20.5" stroke="#6D7A75" stroke-width="1.5" stroke-miterlimit="10"/>
</g>
</svg>
