<svg width="13" height="17" viewBox="0 0 13 17" fill="none" xmlns="http://www.w3.org/2000/svg">
<g id="Frame 2608643">
<g id="&#240;&#159;&#166;&#134; icon &#34;Location&#34;">
<path id="Vector" fill-rule="evenodd" clip-rule="evenodd" d="M6.23239 16.9139C6.23257 16.914 6.23271 16.9141 6.5 16.528L6.23239 16.9139ZM6.76761 16.9139L6.76929 16.9127L6.77351 16.9097L6.78827 16.8989C6.80095 16.8896 6.8192 16.8762 6.8426 16.8587C6.8894 16.8238 6.95695 16.7725 7.04233 16.7058C7.213 16.5723 7.45508 16.3766 7.7448 16.1247C8.32358 15.6213 9.09573 14.8907 9.86909 13.9807C11.4047 12.174 13 9.59545 13 6.64751C13 4.88539 12.3158 3.19486 11.0972 1.94799C9.87838 0.701042 8.22477 0 6.5 0C4.77522 0 3.12162 0.701042 1.90283 1.94799C0.684171 3.19486 0 4.88539 0 6.64751C0 9.59545 1.59533 12.174 3.13091 13.9807C3.90427 14.8907 4.67642 15.6213 5.2552 16.1247C5.54492 16.3766 5.787 16.5723 5.95767 16.7058C6.04305 16.7725 6.1106 16.8238 6.1574 16.8587C6.1808 16.8762 6.19905 16.8896 6.21173 16.8989L6.22649 16.9097L6.23071 16.9127L6.23239 16.9139C6.3927 17.0287 6.6073 17.0287 6.76761 16.9139ZM6.5 16.528L6.76761 16.9139C6.76743 16.914 6.76729 16.9141 6.5 16.528ZM8.82143 6.6112C8.82143 7.91521 7.78208 8.97234 6.5 8.97234C5.21792 8.97234 4.17857 7.91521 4.17857 6.6112C4.17857 5.30719 5.21792 4.25006 6.5 4.25006C7.78208 4.25006 8.82143 5.30719 8.82143 6.6112Z" fill="#6D7A75"/>
</g>
</g>
</svg>
