<svg width="24" height="24" viewBox="0 0 24 24" fill="none" xmlns="http://www.w3.org/2000/svg">
<g id="solar:medical-kit-linear">
<g id="Group">
<path id="Vector" d="M16 6C16 4.114 16 3.172 15.414 2.586C14.828 2 13.886 2 12 2C10.114 2 9.172 2 8.586 2.586C8 3.172 8 4.114 8 6M2 14C2 10.229 2 8.343 3.172 7.172C4.343 6 6.229 6 10 6H14C17.771 6 19.657 6 20.828 7.172C22 8.343 22 10.229 22 14C22 17.771 22 19.657 20.828 20.828C19.657 22 17.771 22 14 22H10C6.229 22 4.343 22 3.172 20.828C2 19.657 2 17.771 2 14Z" stroke="#006B59" stroke-width="1.5"/>
<path id="Vector_2" d="M13.5 14H10.5M12 12.5V15.5" stroke="#006B59" stroke-width="1.5" stroke-linecap="round"/>
<path id="Vector_3" d="M12 18C14.2091 18 16 16.2091 16 14C16 11.7909 14.2091 10 12 10C9.79086 10 8 11.7909 8 14C8 16.2091 9.79086 18 12 18Z" stroke="#006B59" stroke-width="1.5"/>
</g>
</g>
</svg>
