<svg width="35" height="33" viewBox="0 0 35 33" fill="none" xmlns="http://www.w3.org/2000/svg">
<path d="M33.7464 11.793L23.3325 10.3516L18.6772 1.3633C18.5501 1.1172 18.3409 0.917983 18.0825 0.796889C17.4345 0.492202 16.647 0.746108 16.3229 1.3633L11.6677 10.3516L1.2538 11.793C0.966694 11.832 0.704194 11.961 0.503217 12.1563C0.260248 12.3941 0.12636 12.7141 0.130975 13.0459C0.135589 13.3777 0.278328 13.6942 0.527826 13.9258L8.0624 20.9219L6.28232 30.8008C6.24057 31.0306 6.26728 31.2669 6.35939 31.483C6.45151 31.6991 6.60536 31.8863 6.8035 32.0234C7.00163 32.1604 7.23612 32.2418 7.48038 32.2584C7.72464 32.275 7.96889 32.2261 8.18544 32.1172L17.5001 27.4531L26.8147 32.1172C27.069 32.2461 27.3643 32.2891 27.6474 32.2422C28.361 32.125 28.8409 31.4805 28.7179 30.8008L26.9378 20.9219L34.4724 13.9258C34.6774 13.7344 34.8128 13.4844 34.8538 13.211C34.9645 12.5274 34.4641 11.8945 33.7464 11.793Z" fill="#F2C94C"/>
</svg>
