<svg width="366" height="88" viewBox="0 0 366 88" fill="none" xmlns="http://www.w3.org/2000/svg">
<g filter="url(#filter0_d_3550_22087)">
<rect x="7" y="7" width="350" height="72" rx="10" fill="white" shape-rendering="crispEdges"/>
<circle cx="108" cy="43" r="20" fill="white"/>
<path d="M115 37.41L113.59 36L108 41.59L102.41 36L101 37.41L106.59 43L101 48.59L102.41 50L108 44.41L113.59 50L115 48.59L109.41 43L115 37.41Z" fill="#BA1A1A"/>
<path d="M146.844 47.5H144.836V37.9766H139.492V47.5H137.469V36.2266H146.844V47.5ZM153.827 38.8125C154.91 38.8125 155.767 39.2057 156.397 39.9922C157.032 40.7786 157.35 41.8568 157.35 43.2266C157.35 44.5911 157.035 45.6693 156.405 46.4609C155.78 47.2474 154.928 47.6406 153.85 47.6406C153.241 47.6406 152.707 47.5156 152.248 47.2656C151.795 47.0104 151.459 46.6562 151.241 46.2031H151.108V50.3438H149.17V38.9531H151.038V40.3672H151.17C151.415 39.8828 151.772 39.5026 152.241 39.2266C152.715 38.9505 153.243 38.8125 153.827 38.8125ZM153.217 45.9922C153.889 45.9922 154.413 45.7474 154.788 45.2578C155.168 44.7682 155.358 44.0911 155.358 43.2266C155.358 42.362 155.168 41.6849 154.788 41.1953C154.413 40.7057 153.892 40.4609 153.225 40.4609C152.564 40.4609 152.04 40.7083 151.655 41.2031C151.269 41.6979 151.074 42.3724 151.069 43.2266C151.074 44.0807 151.267 44.7552 151.647 45.25C152.032 45.7448 152.556 45.9922 153.217 45.9922ZM160.981 47.5H159.067V38.9531H160.981V44.6094H161.114L164.833 38.9531H166.739V47.5H164.833V41.8047H164.692L160.981 47.5ZM172.448 40.3203C171.87 40.3203 171.394 40.5104 171.019 40.8906C170.644 41.2708 170.435 41.7734 170.394 42.3984H174.417C174.396 41.763 174.209 41.2578 173.855 40.8828C173.501 40.5078 173.032 40.3203 172.448 40.3203ZM174.433 45.1484H176.269C176.086 45.9297 175.657 46.5469 174.98 47C174.308 47.4479 173.472 47.6719 172.472 47.6719C171.217 47.6719 170.23 47.2812 169.511 46.5C168.797 45.7135 168.441 44.6328 168.441 43.2578C168.441 41.8828 168.8 40.7943 169.519 39.9922C170.237 39.1849 171.217 38.7812 172.456 38.7812C173.675 38.7812 174.628 39.1641 175.316 39.9297C176.008 40.6901 176.355 41.7448 176.355 43.0938V43.7188H170.386V43.8203C170.412 44.5339 170.615 45.099 170.995 45.5156C171.381 45.9271 171.891 46.1328 172.527 46.1328C173.506 46.1328 174.141 45.8047 174.433 45.1484ZM171.511 37.4844C171.297 37.6927 171.032 37.7969 170.714 37.7969C170.396 37.7969 170.131 37.6927 169.917 37.4844C169.704 37.2708 169.597 37.0078 169.597 36.6953C169.597 36.3828 169.704 36.1224 169.917 35.9141C170.131 35.7005 170.396 35.5938 170.714 35.5938C171.032 35.5938 171.297 35.7005 171.511 35.9141C171.724 36.1224 171.831 36.3828 171.831 36.6953C171.831 37.0078 171.724 37.2708 171.511 37.4844ZM174.987 37.4844C174.774 37.6927 174.508 37.7969 174.191 37.7969C173.873 37.7969 173.607 37.6927 173.394 37.4844C173.18 37.2708 173.073 37.0078 173.073 36.6953C173.073 36.3828 173.18 36.1224 173.394 35.9141C173.607 35.7005 173.873 35.5938 174.191 35.5938C174.508 35.5938 174.774 35.7005 174.987 35.9141C175.201 36.1224 175.308 36.3828 175.308 36.6953C175.308 37.0078 175.201 37.2708 174.987 37.4844ZM179.9 47.5H178.048V38.9531H180.517L183.048 44.8359H183.189L185.728 38.9531H188.15V47.5H186.291V41.6875H186.15L183.791 47.1016H182.4L180.048 41.6875H179.9V47.5ZM197.834 47.6719C196.553 47.6719 195.548 47.2786 194.819 46.4922C194.09 45.7005 193.725 44.612 193.725 43.2266C193.725 41.8516 194.092 40.7682 194.827 39.9766C195.561 39.1797 196.564 38.7812 197.834 38.7812C199.11 38.7812 200.113 39.1771 200.842 39.9688C201.577 40.7604 201.944 41.8464 201.944 43.2266C201.944 44.612 201.577 45.7005 200.842 46.4922C200.113 47.2786 199.11 47.6719 197.834 47.6719ZM196.264 45.3125C196.634 45.8021 197.157 46.0469 197.834 46.0469C198.511 46.0469 199.032 45.8021 199.397 45.3125C199.767 44.8177 199.952 44.1224 199.952 43.2266C199.952 42.3359 199.767 41.6432 199.397 41.1484C199.027 40.6536 198.506 40.4062 197.834 40.4062C197.157 40.4062 196.634 40.6536 196.264 41.1484C195.894 41.6432 195.709 42.3359 195.709 43.2266C195.709 44.1224 195.894 44.8177 196.264 45.3125ZM209.669 38.9531V40.5H207.036V47.5H205.098V40.5H202.466V38.9531H209.669ZM212.956 47.5H211.105V38.9531H213.573L216.105 44.8359H216.245L218.784 38.9531H221.206V47.5H219.347V41.6875H219.206L216.847 47.1016H215.456L213.105 41.6875H212.956V47.5ZM226.923 40.3203C226.345 40.3203 225.869 40.5104 225.494 40.8906C225.119 41.2708 224.91 41.7734 224.869 42.3984H228.892C228.871 41.763 228.684 41.2578 228.33 40.8828C227.976 40.5078 227.507 40.3203 226.923 40.3203ZM228.908 45.1484H230.744C230.561 45.9297 230.132 46.5469 229.455 47C228.783 47.4479 227.947 47.6719 226.947 47.6719C225.692 47.6719 224.705 47.2812 223.986 46.5C223.272 45.7135 222.916 44.6328 222.916 43.2578C222.916 41.8828 223.275 40.7943 223.994 39.9922C224.713 39.1849 225.692 38.7812 226.931 38.7812C228.15 38.7812 229.103 39.1641 229.791 39.9297C230.483 40.6901 230.83 41.7448 230.83 43.0938V43.7188H224.861V43.8203C224.887 44.5339 225.09 45.099 225.47 45.5156C225.856 45.9271 226.366 46.1328 227.002 46.1328C227.981 46.1328 228.616 45.8047 228.908 45.1484ZM238.156 47.5V43.875H234.461V47.5H232.523V38.9531H234.461V42.3281H238.156V38.9531H240.094V47.5H238.156ZM245.811 40.3203C245.233 40.3203 244.756 40.5104 244.381 40.8906C244.006 41.2708 243.798 41.7734 243.756 42.3984H247.78C247.759 41.763 247.571 41.2578 247.217 40.8828C246.863 40.5078 246.394 40.3203 245.811 40.3203ZM247.795 45.1484H249.631C249.449 45.9297 249.019 46.5469 248.342 47C247.67 47.4479 246.834 47.6719 245.834 47.6719C244.579 47.6719 243.592 47.2812 242.873 46.5C242.16 45.7135 241.803 44.6328 241.803 43.2578C241.803 41.8828 242.162 40.7943 242.881 39.9922C243.6 39.1849 244.579 38.7812 245.819 38.7812C247.037 38.7812 247.991 39.1641 248.678 39.9297C249.371 40.6901 249.717 41.7448 249.717 43.0938V43.7188H243.748V43.8203C243.774 44.5339 243.978 45.099 244.358 45.5156C244.743 45.9271 245.254 46.1328 245.889 46.1328C246.868 46.1328 247.504 45.8047 247.795 45.1484ZM244.873 37.4844C244.66 37.6927 244.394 37.7969 244.077 37.7969C243.759 37.7969 243.493 37.6927 243.28 37.4844C243.066 37.2708 242.959 37.0078 242.959 36.6953C242.959 36.3828 243.066 36.1224 243.28 35.9141C243.493 35.7005 243.759 35.5938 244.077 35.5938C244.394 35.5938 244.66 35.7005 244.873 35.9141C245.087 36.1224 245.194 36.3828 245.194 36.6953C245.194 37.0078 245.087 37.2708 244.873 37.4844ZM248.35 37.4844C248.136 37.6927 247.871 37.7969 247.553 37.7969C247.235 37.7969 246.97 37.6927 246.756 37.4844C246.543 37.2708 246.436 37.0078 246.436 36.6953C246.436 36.3828 246.543 36.1224 246.756 35.9141C246.97 35.7005 247.235 35.5938 247.553 35.5938C247.871 35.5938 248.136 35.7005 248.35 35.9141C248.564 36.1224 248.67 36.3828 248.67 36.6953C248.67 37.0078 248.564 37.2708 248.35 37.4844ZM257.044 47.5V43.875H253.348V47.5H251.411V38.9531H253.348V42.3281H257.044V38.9531H258.981V47.5H257.044Z" fill="#191C1B"/>
</g>
<defs>
<filter id="filter0_d_3550_22087" x="0" y="0" width="366" height="88" filterUnits="userSpaceOnUse" color-interpolation-filters="sRGB">
<feFlood flood-opacity="0" result="BackgroundImageFix"/>
<feColorMatrix in="SourceAlpha" type="matrix" values="0 0 0 0 0 0 0 0 0 0 0 0 0 0 0 0 0 0 127 0" result="hardAlpha"/>
<feOffset dx="1" dy="1"/>
<feGaussianBlur stdDeviation="4"/>
<feComposite in2="hardAlpha" operator="out"/>
<feColorMatrix type="matrix" values="0 0 0 0 0.427257 0 0 0 0 0.479167 0 0 0 0 0.458403 0 0 0 0.15 0"/>
<feBlend mode="normal" in2="BackgroundImageFix" result="effect1_dropShadow_3550_22087"/>
<feBlend mode="normal" in="SourceGraphic" in2="effect1_dropShadow_3550_22087" result="shape"/>
</filter>
</defs>
</svg>
