<svg width="64" height="64" viewBox="0 0 64 64" fill="none" xmlns="http://www.w3.org/2000/svg">
<g clip-path="url(#clip0_3409_30953)">
<path d="M64 32C64 49.6725 49.6725 64 32 64C14.3275 64 0 49.6725 0 32C0 14.3275 14.3275 0 32 0C49.6725 0 64 14.3275 64 32Z" fill="#B5CFC7"/>
<g clip-path="url(#clip1_3409_30953)">
<path d="M30.9673 24.8682V47.6527C30.9673 47.8392 31.0992 47.9971 31.2541 47.9971H49.6782C49.8332 47.9971 49.9626 47.8392 49.9626 47.6527V24.8682C49.966 24.783 49.9389 24.6993 49.886 24.6324C49.886 24.6324 49.8807 24.6289 49.8783 24.6318C49.8553 24.5998 49.8251 24.5737 49.7901 24.5555C49.7552 24.5374 49.7164 24.5277 49.677 24.5273H31.2529C31.0992 24.5273 30.9673 24.6859 30.9673 24.8735M12 30.029V47.7329C12 47.8783 12.1235 48.0007 12.2684 48.0007H29.4367C29.507 47.9996 29.5741 47.9709 29.6235 47.9208C29.673 47.8707 29.7007 47.8032 29.7009 47.7329V30.029C29.702 29.9952 29.6961 29.9616 29.6835 29.9302C29.6709 29.8988 29.652 29.8704 29.6278 29.8467L29.6231 29.8414L29.613 29.8343C29.5903 29.8103 29.5628 29.7913 29.5323 29.7786C29.5019 29.7658 29.4691 29.7595 29.4361 29.7601H12.2678C12.197 29.7616 12.1296 29.7905 12.0797 29.8406C12.0298 29.8907 12.0012 29.9583 12 30.029Z" fill="#86A7AC"/>
<path d="M14.4612 35.2241H16.7899C16.8095 35.2241 16.8267 35.2033 16.8267 35.1825V32.5457C16.827 32.5407 16.8262 32.5357 16.8245 32.5311C16.8227 32.5264 16.82 32.5221 16.8166 32.5185C16.8132 32.5149 16.809 32.512 16.8044 32.5101C16.7998 32.5081 16.7949 32.5071 16.7899 32.5071H14.4612C14.4562 32.5071 14.4513 32.5081 14.4467 32.51C14.4421 32.5119 14.438 32.5148 14.4345 32.5184V32.5208C14.4298 32.5309 14.4238 32.5368 14.4238 32.5368V35.1825C14.4238 35.2033 14.4405 35.2241 14.4612 35.2241ZM14.4612 39.6606H16.7899C16.8095 39.6606 16.8267 39.6404 16.8267 39.6196V36.9834C16.8269 36.9784 16.8261 36.9735 16.8243 36.9688C16.8225 36.9642 16.8198 36.96 16.8164 36.9564C16.813 36.9528 16.8089 36.9499 16.8043 36.9479C16.7998 36.9459 16.7949 36.9449 16.7899 36.9448H14.4612C14.4562 36.9448 14.4512 36.9458 14.4466 36.9479C14.442 36.9499 14.4379 36.9529 14.4345 36.9567V36.9596C14.4298 36.9685 14.4238 36.9751 14.4238 36.9751V39.6214C14.4238 39.6404 14.4405 39.6606 14.4612 39.6606ZM18.3503 35.2241H20.6808C20.6992 35.2241 20.7164 35.2033 20.7164 35.1825V32.5457C20.7164 32.5225 20.6992 32.5071 20.6808 32.5071H18.3503C18.3405 32.5073 18.3311 32.5114 18.3242 32.5184V32.5208C18.3194 32.5309 18.3147 32.5368 18.3147 32.5368V35.1825C18.3147 35.2033 18.3295 35.2241 18.3503 35.2241ZM18.3503 39.6606H20.6808C20.6992 39.6606 20.7164 39.6404 20.7164 39.6196V36.9834C20.7164 36.9608 20.6992 36.9448 20.6808 36.9448H18.3503C18.3454 36.9449 18.3405 36.9459 18.336 36.948C18.3315 36.95 18.3275 36.953 18.3242 36.9567V36.9596C18.3194 36.9685 18.3147 36.9751 18.3147 36.9751V39.6214C18.3147 39.6404 18.3295 39.6606 18.3503 39.6606ZM42.713 30.6024H45.0435C45.0619 30.6024 45.0803 30.5816 45.0803 30.5608V27.9251C45.0803 27.902 45.0625 27.8848 45.0435 27.8848H42.713C42.703 27.8848 42.6935 27.8895 42.6935 27.8895L42.6929 27.9002C42.6875 27.9085 42.6828 27.915 42.6828 27.9257V30.5614C42.6828 30.5816 42.697 30.6024 42.7184 30.6024M42.713 35.0389H45.0435C45.0619 35.0389 45.0803 35.0181 45.0803 34.9973V32.3605C45.0805 32.3555 45.0797 32.3505 45.0779 32.3458C45.0761 32.3411 45.0735 32.3369 45.07 32.3332C45.0666 32.3296 45.0625 32.3267 45.058 32.3246C45.0534 32.3226 45.0485 32.3214 45.0435 32.3213H42.713C42.703 32.3213 42.6935 32.326 42.6935 32.326L42.6929 32.3361C42.6875 32.3462 42.6828 32.3515 42.6828 32.361V34.9979C42.6828 35.0181 42.697 35.0389 42.7184 35.0389M46.6039 30.6024H48.9338C48.9516 30.6024 48.9706 30.5816 48.9706 30.5608V27.9251C48.9706 27.902 48.9534 27.8848 48.9338 27.8848H46.6039C46.6039 27.8848 46.5837 27.8895 46.5772 27.8972V27.8996C46.5772 27.8996 46.5677 27.9145 46.5677 27.9251V30.5608C46.5689 30.5816 46.5837 30.6024 46.6039 30.6024ZM46.6039 35.0389H48.9338C48.9516 35.0389 48.9706 35.0181 48.9706 34.9973V32.3605C48.9706 32.3373 48.9534 32.3213 48.9338 32.3213H46.6039C46.6039 32.3213 46.5837 32.326 46.5772 32.3337V32.3361C46.5772 32.3361 46.5677 32.3515 46.5677 32.361V34.9979C46.5689 35.0181 46.5837 35.0389 46.6039 35.0389ZM42.713 38.8632H45.0435C45.0619 38.8632 45.0803 38.843 45.0803 38.8222V36.186C45.0805 36.181 45.0797 36.1761 45.0779 36.1714C45.0761 36.1668 45.0734 36.1626 45.07 36.159C45.0666 36.1554 45.0625 36.1525 45.0579 36.1505C45.0534 36.1485 45.0485 36.1475 45.0435 36.1474H42.713C42.7081 36.1474 42.7033 36.1485 42.6989 36.1507C42.6944 36.1529 42.6906 36.156 42.6875 36.1599V36.1622C42.6822 36.1717 42.6774 36.1783 42.6774 36.1866V38.8234C42.6774 38.843 42.6917 38.8632 42.713 38.8632ZM42.713 43.2979H45.0435C45.0619 43.2979 45.0803 43.2771 45.0803 43.2575V40.6207C45.0805 40.6158 45.0797 40.6109 45.0779 40.6062C45.0761 40.6016 45.0734 40.5974 45.07 40.5939C45.0665 40.5904 45.0624 40.5875 45.0579 40.5856C45.0533 40.5837 45.0485 40.5827 45.0435 40.5827H42.713C42.7083 40.5828 42.7035 40.5838 42.6991 40.5857C42.6947 40.5877 42.6908 40.5905 42.6875 40.594V40.5964C42.6822 40.6065 42.6774 40.6118 42.6774 40.6219V43.2581C42.6774 43.2771 42.6917 43.2979 42.713 43.2979ZM46.6039 38.8632H48.9338C48.9516 38.8632 48.9706 38.843 48.9706 38.8222V36.186C48.9708 36.181 48.97 36.176 48.9683 36.1713C48.9666 36.1667 48.9639 36.1624 48.9604 36.1588C48.957 36.1552 48.9529 36.1523 48.9483 36.1504C48.9437 36.1484 48.9388 36.1474 48.9338 36.1474H46.6039C46.6039 36.1474 46.5837 36.1521 46.5772 36.1599V36.1622C46.5724 36.1717 46.5677 36.1783 46.5677 36.1866V38.8234C46.5689 38.843 46.5837 38.8632 46.6039 38.8632ZM46.6039 43.2979H48.9338C48.9516 43.2979 48.9706 43.2771 48.9706 43.2575V40.6207C48.9707 40.6158 48.9699 40.6109 48.9681 40.6062C48.9663 40.6016 48.9637 40.5974 48.9602 40.5939C48.9568 40.5904 48.9527 40.5875 48.9481 40.5856C48.9436 40.5837 48.9387 40.5827 48.9338 40.5827H46.6039C46.6039 40.5827 46.5837 40.5875 46.5772 40.594V40.5964C46.5724 40.6065 46.5677 40.6118 46.5677 40.6219V43.2581C46.5689 43.2771 46.5837 43.2979 46.6039 43.2979Z" fill="#6C888C"/>
<path d="M21.7261 15.3078V47.489C21.7261 47.7568 21.8763 47.9759 22.0538 47.9759H43.2145C43.3926 47.9759 43.5428 47.7568 43.5428 47.489V15.3078C43.5475 15.1905 43.5169 15.0744 43.455 14.9747L43.4454 14.9652C43.4454 14.9569 43.4401 14.9557 43.4336 14.9515C43.4117 14.9125 43.3799 14.8798 43.3415 14.8568C43.303 14.8338 43.2593 14.8212 43.2145 14.8203H22.0544C21.8763 14.8203 21.7261 15.0424 21.7261 15.3078Z" fill="#A2C3CB"/>
<path d="M29.6973 47.9938H35.6977C35.7434 47.9938 35.7868 47.9629 35.7868 47.9243V43.6149C35.7868 43.5781 35.7434 43.5508 35.6977 43.5508H29.6973C29.6751 43.5506 29.6535 43.557 29.6349 43.5692L29.6338 43.5716H29.6314C29.6195 43.5852 29.6064 43.5995 29.6064 43.6149V47.9249C29.6064 47.9635 29.6504 47.9938 29.6973 47.9938Z" fill="#405967"/>
<path d="M30.4479 45.857H31.49C31.49 45.857 31.5048 45.8469 31.5048 45.8386V44.6594C31.5048 44.6469 31.4971 44.6416 31.4971 44.6416H30.4467L30.4343 44.6463V44.6487L30.4307 44.6558V45.8398C30.4319 45.8475 30.439 45.857 30.4479 45.857ZM23.1478 32.25H42.3716C42.5248 32.25 42.6774 32.2221 42.6774 32.1978V28.9001C42.6774 28.8728 42.5248 28.8496 42.3716 28.8496H23.1472C23.0712 28.8496 22.9797 28.8567 22.9334 28.8656V28.868C22.8966 28.8805 22.8574 28.8888 22.8574 28.9001V32.1978C22.8574 32.2215 22.9803 32.25 23.1478 32.25ZM23.1347 37.8004H41.5617C41.7102 37.8004 41.8556 37.7719 41.8556 37.7475V34.4499C41.8556 34.4231 41.7102 34.4 41.5617 34.4H23.1365C23.0623 34.4 22.975 34.4006 22.9305 34.4154V34.4202C22.893 34.4303 22.8574 34.4386 22.8574 34.4499V37.7505C22.8574 37.7743 22.9744 37.8028 23.1359 37.8028" fill="#86A7AC"/>
<path d="M27.7682 32.259H30.6847C30.7079 32.259 30.731 32.2305 30.731 32.205V28.9079C30.731 28.8806 30.7079 28.8574 30.6847 28.8574H27.7664C27.76 28.8577 27.7537 28.8592 27.7479 28.862C27.742 28.8647 27.7368 28.8686 27.7326 28.8735V28.8758C27.7326 28.8877 27.7207 28.8966 27.7207 28.9079V32.2056C27.7207 32.2305 27.7403 32.259 27.7658 32.259M27.7682 37.81H30.6847C30.7079 37.81 30.731 37.7815 30.731 37.756V34.4595C30.731 34.4321 30.7079 34.409 30.6847 34.409H27.7664C27.76 34.4092 27.7537 34.4108 27.7479 34.4135C27.742 34.4163 27.7368 34.4202 27.7326 34.425V34.4298C27.7326 34.4399 27.7207 34.4482 27.7207 34.46V37.7595C27.7207 37.7833 27.7403 37.8118 27.7658 37.8118M39.4134 32.259H42.3317C42.3555 32.259 42.3786 32.2305 42.3786 32.205V28.9079C42.3786 28.8806 42.3555 28.8574 42.3317 28.8574H39.4182C39.4119 28.8577 39.4058 28.8593 39.4002 28.862C39.3946 28.8648 39.3896 28.8687 39.3855 28.8735V28.8758C39.3849 28.8877 39.373 28.8966 39.373 28.9079V32.2056C39.373 32.2305 39.3926 32.259 39.4182 32.259M39.4134 37.81H42.3317C42.3555 37.81 42.3786 37.7815 42.3786 37.756V34.4595C42.3786 34.4321 42.3555 34.409 42.3317 34.409H39.4182C39.4119 34.4093 39.4058 34.4109 39.4002 34.4136C39.3946 34.4164 39.3896 34.4203 39.3855 34.425V34.4298C39.3855 34.4298 39.373 34.4482 39.373 34.46V37.7595C39.373 37.7833 39.3926 37.8118 39.4182 37.8118M34.5862 32.259H37.501C37.5241 32.259 37.5461 32.2305 37.5461 32.205V28.9079C37.5461 28.8806 37.5241 28.8574 37.501 28.8574H34.5886C34.5751 28.8581 34.5624 28.8638 34.553 28.8735V28.8758C34.5482 28.8877 34.5405 28.8966 34.5405 28.9079V32.2056C34.5405 32.2305 34.5619 32.259 34.5886 32.259M34.5862 37.81H37.501C37.5241 37.81 37.5461 37.7815 37.5461 37.756V34.4595C37.5461 34.4321 37.5241 34.409 37.501 34.409H34.5886C34.5751 34.4096 34.5624 34.4154 34.553 34.425V34.4298C34.553 34.4298 34.5405 34.4482 34.5405 34.46V37.7595C34.5405 37.7833 34.5619 37.8118 34.5886 37.8118M33.8619 45.8565H34.9051C34.9051 45.8565 34.9205 45.8464 34.9205 45.8381V44.6589C34.9205 44.6464 34.9122 44.6411 34.9122 44.6411H33.8613L33.85 44.6458V44.6482C33.8476 44.6506 33.8452 44.6553 33.8452 44.6553V45.8393C33.8464 45.847 33.8541 45.8565 33.8619 45.8565Z" fill="#86A7AC"/>
<path d="M27.832 23.812H37.5606C37.6378 23.812 37.7108 23.7984 37.7108 23.7794V21.5772C37.7108 21.5588 37.6378 21.5451 37.5606 21.5451H27.8326C27.7999 21.5441 27.7672 21.5469 27.7352 21.5534L27.7316 21.5546H27.7281C27.7049 21.56 27.6865 21.5695 27.6865 21.5695V23.78C27.6865 23.7978 27.7554 23.812 27.8332 23.812" fill="#DE374B"/>
<path d="M31.5615 21.6255V27.2786C31.5615 27.3225 31.5758 27.3641 31.5954 27.3641H33.7988C33.8172 27.3641 33.8332 27.3225 33.8332 27.2786V21.6255C33.8344 21.6062 33.8305 21.587 33.8219 21.5697V21.5637C33.8118 21.5525 33.8053 21.543 33.8053 21.543H31.5942C31.577 21.543 31.5615 21.5804 31.5615 21.6255Z" fill="#DE374B"/>
<path d="M31.5615 18.0734V23.7253C31.5615 23.7692 31.5758 23.8108 31.5954 23.8108H33.7988C33.8172 23.8108 33.8332 23.7692 33.8332 23.7253V18.0734C33.8342 18.0537 33.8304 18.0341 33.8219 18.0164V18.0122C33.816 18.0052 33.8104 17.9979 33.8053 17.9902H31.5942C31.577 17.9902 31.5615 18.027 31.5615 18.0734Z" fill="#DE374B"/>
</g>
</g>
<defs>
<clipPath id="clip0_3409_30953">
<rect width="64" height="64" fill="white"/>
</clipPath>
<clipPath id="clip1_3409_30953">
<rect width="38" height="38" fill="white" transform="translate(12 10)"/>
</clipPath>
</defs>
</svg>
