<svg width="46" height="62" viewBox="0 0 46 62" fill="none" xmlns="http://www.w3.org/2000/svg">
<path d="M45.9993 23.2423C46.15 41.7906 23.075 62 23.075 62C23.075 62 0 41.7906 0 23.2423C0 10.4063 10.2968 0 22.9989 0C35.7009 0 45.8947 10.407 45.9993 23.2423Z" fill="#5355A9"/>
<path d="M26.0989 14.7266C27.452 14.7266 28.5498 16.8512 28.5498 18.6493C28.5498 20.4474 27.452 21.9066 26.0989 21.9066C24.7459 21.9066 23.6481 20.4474 23.6481 18.6493C23.6481 16.8512 24.7459 14.7266 26.0989 14.7266Z" fill="white"/>
<path d="M19.1356 14.7266C20.4886 14.7266 21.5864 16.8512 21.5864 18.6493C21.5864 20.4474 20.4886 21.9066 19.1356 21.9066C17.7825 21.9066 16.6847 20.4474 16.6847 18.6493C16.6847 16.8512 17.7825 14.7266 19.1356 14.7266Z" fill="white"/>
<path d="M11.797 24.215C11.2221 22.7308 11.4739 20.5955 12.622 20.1228C13.7701 19.65 15.3768 21.0183 15.9517 22.5025C16.5267 23.9866 16.0629 25.5725 14.9148 26.0452C13.7684 26.518 12.3719 25.6974 11.797 24.2132V24.215Z" fill="white"/>
<path d="M33.4375 24.215C32.8626 25.6992 31.4661 26.5197 30.3197 26.047C29.1716 25.5743 28.7078 23.9884 29.2828 22.5042C29.8577 21.0201 31.4661 19.6518 32.6125 20.1246C33.7589 20.5973 34.0107 22.7326 33.4375 24.2168V24.215Z" fill="white"/>
<path d="M31.3845 32.4154C31.1222 31.1988 30.4952 30.1035 29.8021 29.0867C28.1781 26.707 25.5779 24.3024 22.6181 24.3024C19.6705 24.3024 17.0582 26.7053 15.4341 29.0867C14.7411 30.1035 14.1141 31.1988 13.8518 32.4154C13.5895 33.632 13.7319 34.9913 14.4632 35.9778C15.1927 36.9661 16.5753 37.4584 17.6574 36.9233C18.3001 36.6058 18.8212 35.9653 19.5299 35.9029C20.1812 35.8458 20.7561 36.2989 21.2998 36.6771C21.6923 36.95 22.1648 37.1998 22.6181 37.2016C23.0715 37.198 23.5439 36.95 23.9365 36.6771C24.4801 36.2989 25.0551 35.8458 25.7064 35.9029C26.4151 35.9653 26.9362 36.6058 27.5788 36.9233C28.6609 37.4584 30.0436 36.9643 30.7731 35.9778C31.5026 34.9896 31.6467 33.6303 31.3845 32.4154ZM25.1975 30.9509C24.864 31.5806 24.336 32.1354 23.8913 32.5671C23.6516 32.799 23.4015 33.0166 23.1392 33.2164C22.8318 33.4501 22.4097 33.4501 22.1023 33.2164C21.84 33.0166 21.5899 32.799 21.3502 32.5671C20.9055 32.1354 20.3775 31.5806 20.044 30.9509C19.7678 30.43 19.6237 29.8591 19.7661 29.2651C19.9033 28.6943 20.3393 28.193 20.8742 28.1234C21.4926 28.0432 22.2134 28.4909 22.6216 29.0082C23.0298 28.4927 23.7506 28.0432 24.369 28.1234C24.9039 28.193 25.3399 28.6943 25.4771 29.2651C25.6196 29.8609 25.4771 30.4318 25.1992 30.9509H25.1975Z" fill="white"/>
</svg>
