<svg width="64" height="64" viewBox="0 0 64 64" fill="none" xmlns="http://www.w3.org/2000/svg">
<g id="Frame" clip-path="url(#clip0_3409_30839)">
<g id="Group">
<g id="Capa 1">
<path id="Vector" d="M32 64C49.6731 64 64 49.6731 64 32C64 14.3269 49.6731 0 32 0C14.3269 0 0 14.3269 0 32C0 49.6731 14.3269 64 32 64Z" fill="#B5CFC7"/>
<g id="Group_2">
<path id="Vector_2" d="M42.3529 12.1074H21.6474C20.9584 12.1074 20.3999 12.6659 20.3999 13.3549V50.6444C20.3999 51.3334 20.9584 51.8919 21.6474 51.8919H42.3529C43.0419 51.8919 43.6004 51.3334 43.6004 50.6444V13.3549C43.6004 12.6659 43.0419 12.1074 42.3529 12.1074Z" fill="#122E39"/>
<path id="Vector_3" d="M42.041 15.1035H21.9653V47.5744H42.041V15.1035Z" fill="#B5CFC7"/>
<g id="Vector_4" style="mix-blend-mode:multiply">
<path d="M21.9653 15.1035V47.5683H42.041L21.9653 15.1035Z" fill="#C6C6C6"/>
</g>
<path id="Vector_5" d="M34.929 13.4222C34.929 13.6607 34.7394 13.8502 34.501 13.8502H29.4989C29.2604 13.8502 29.0708 13.6607 29.0708 13.4222C29.0708 13.1837 29.2604 12.9941 29.4989 12.9941H34.501C34.7394 12.9941 34.929 13.1837 34.929 13.4222Z" fill="white"/>
<path id="Vector_6" d="M35.1679 49.629C35.1679 50.0143 34.85 50.3322 34.4647 50.3322H29.5421C29.1569 50.3322 28.8389 50.0204 28.8389 49.629C28.8389 49.2376 29.1569 48.9258 29.5421 48.9258H34.4647C34.85 48.9258 35.1679 49.2376 35.1679 49.629Z" fill="white"/>
<g id="Group_3">
<path id="Vector_7" d="M26.5335 49.6288C26.5335 50.1669 26.0993 50.6072 25.5551 50.6072C25.0108 50.6072 24.5767 50.173 24.5767 49.6288C24.5767 49.0846 25.0108 48.6504 25.5551 48.6504C26.0993 48.6504 26.5335 49.0907 26.5335 49.6288Z" fill="white"/>
<path id="Vector_8" d="M39.4241 49.6288C39.4241 50.1669 38.9899 50.6072 38.4457 50.6072C37.9015 50.6072 37.4673 50.173 37.4673 49.6288C37.4673 49.0846 37.9015 48.6504 38.4457 48.6504C38.9899 48.6504 39.4241 49.0907 39.4241 49.6288Z" fill="white"/>
</g>
</g>
</g>
</g>
<g id="Group_4">
<g id="Group_5">
<path id="Vector_9" d="M12.2953 11.3933V17.6906C12.2953 18.5442 12.9891 19.2362 13.8449 19.2362H22.5001L24.4077 20.9278V19.2362H24.4495C25.3054 19.2362 25.9992 18.5442 25.9992 17.6906V11.3933C25.9992 10.5397 25.3054 9.84766 24.4495 9.84766H13.8436C12.9878 9.84766 12.2939 10.5397 12.2939 11.3933H12.2953Z" fill="#6EBEBF"/>
<g id="Group_6">
<path id="Vector_10" d="M23.6213 11.9844H14.6748V12.245H23.6213V11.9844Z" fill="white"/>
<path id="Vector_11" d="M23.6213 13.6113H14.6748V13.872H23.6213V13.6113Z" fill="white"/>
<path id="Vector_12" d="M23.6213 15.2402H14.6748V15.5009H23.6213V15.2402Z" fill="white"/>
<path id="Vector_13" d="M21.0368 16.8672H14.6748V17.1278H21.0368V16.8672Z" fill="white"/>
</g>
</g>
<g id="Group_7">
<path id="Vector_14" d="M12.3606 17.6926H12.23V11.394C12.23 10.5052 12.9552 9.7832 13.845 9.7832H24.4509V9.91353H13.845C13.027 9.91353 12.3606 10.5782 12.3606 11.394V17.6913V17.6926Z" fill="#2D313D"/>
<path id="Vector_15" d="M24.4745 21.075L22.457 19.287L22.5433 19.1892L24.3425 20.7844V19.1723H24.4496C25.2676 19.1723 25.934 18.5076 25.934 17.6918V11.3945H26.0646V17.6918C26.0646 18.5728 25.3525 19.2896 24.4732 19.3026V21.075H24.4745Z" fill="#2D313D"/>
<path id="Vector_16" d="M20.732 19.1738H13.8447V19.3042H20.732V19.1738Z" fill="#2D313D"/>
</g>
</g>
<g id="Group_8">
<path id="Vector_17" d="M36.0423 21.9145V22.4799H17.1582V21.9145C17.1582 21.4257 17.5721 21.0273 18.0788 21.0273H35.1224C35.6284 21.0273 36.0423 21.4257 36.0423 21.9145Z" fill="#426277"/>
<path id="Vector_18" d="M36.0423 22.4805V36.0569C36.0423 36.545 35.6284 36.9434 35.1224 36.9434H18.0788C17.5721 36.9434 17.1582 36.545 17.1582 36.0569V22.4805H36.0423Z" fill="#6EBEBF"/>
<path id="Vector_19" d="M26.4992 22.3966C26.4992 22.3966 26.1651 22.0083 26.3572 21.7415C26.3572 21.7415 25.8207 20.5182 26.9429 20.4798C26.9429 20.4798 27.1364 19.3888 28.9277 20.3649C28.9277 20.3649 30.4326 20.1133 29.815 22.5015C29.9056 23.03 29.9549 23.6554 29.3569 23.6699L26.5 22.3973L26.4992 22.3966Z" fill="#2D313D"/>
<g id="Group_9">
<path id="Vector_20" d="M29.6399 25.1716L29.3333 22.9648L27.7566 23.8744L27.6131 25.2106L26.8613 25.4774C27.3818 26.1527 29.2644 26.3205 30.1293 25.3075L29.6407 25.1716H29.6399Z" fill="#F0AB8F"/>
<path id="Vector_21" d="M27.6436 24.8948C28.5722 24.5912 28.7636 23.8457 28.7636 23.8457L27.7226 24.1646L27.6443 24.8948H27.6436Z" fill="#2D313D"/>
</g>
<path id="Vector_22" d="M29.1239 22.5386C29.1239 22.5386 29.2928 21.4648 28.6701 21.1098C28.0474 20.7548 26.815 20.7367 26.5649 21.5769C26.4229 22.0534 26.533 23.3324 26.6425 23.8444C26.7411 24.3042 27.0934 24.6498 27.5516 24.6498C28.6404 24.6498 29.0797 23.2746 29.0797 23.2746L29.1239 22.5386Z" fill="#F0AB8F"/>
<path id="Vector_23" d="M32.3564 36.9648H25.2036C25.3102 35.9526 25.3986 35.1471 25.4588 34.6699H32.2259L32.3564 36.9648Z" fill="#253B3E"/>
<path id="Vector_24" d="M29.9175 25.2285C29.9175 25.2285 27.4942 26.3644 27.3238 25.3124L26.9345 25.4418L26.269 35.3677C27.471 35.7747 29.2057 35.6316 31.0564 35.3677L31.1238 26.2321L30.6084 25.3717L29.9183 25.2285H29.9175Z" fill="#426277"/>
<path id="Vector_25" d="M27.355 37.0026H24.7373L24.9997 33.1929L25.6507 27.0174C25.655 27.0839 27.3231 25.3125 27.3231 25.3125C27.3231 25.3125 27.368 27.3196 27.4275 28.7108C27.5181 30.8278 27.355 37.0033 27.355 37.0033V37.0026Z" fill="white"/>
<path id="Vector_26" d="M29.3131 37.0026C29.3131 37.0026 29.1804 30.7165 29.2427 28.825C29.2935 27.2849 29.5479 26.2228 29.727 25.6545C29.7741 25.5063 29.8154 25.3906 29.8466 25.3096C29.8553 25.2872 29.864 25.2677 29.8705 25.2496C29.8727 25.2453 29.8749 25.2409 29.8763 25.2366C29.885 25.2163 29.8915 25.1997 29.8966 25.1881C29.9046 25.1708 29.9089 25.1621 29.9089 25.1621L29.9938 25.2438L30.0285 25.2785L30.096 25.3436L31.1239 26.3457L31.2921 26.5106L31.3493 26.5655L32.2678 27.4606L32.8151 30.6073L33.2617 33.1748L33.5901 35.0648L33.5995 35.1227L33.9199 37.0026H29.3123H29.3131Z" fill="white"/>
<path id="Vector_27" d="M22.2898 28.695C22.2101 28.6039 21.9447 28.3205 21.9194 28.2026C21.8962 28.0934 21.8447 27.4854 21.7164 27.5078C21.5823 27.5316 21.7041 27.9423 21.5953 27.9431C21.5279 27.9431 21.2749 27.1412 21.1357 27.2287C21.0444 27.2858 21.264 27.7507 21.206 27.763C21.1517 27.7739 21.0009 27.1448 20.8617 27.2236C20.716 27.3061 21.1176 27.9004 21.048 27.9344C21.0139 27.951 20.7153 27.2215 20.6036 27.288C20.4536 27.3776 20.8552 27.9308 20.7907 27.9778C20.7588 28.0009 20.6522 27.7796 20.5717 27.6567C20.5275 27.588 20.4645 27.6133 20.4695 27.6683C20.5188 28.2395 21.2474 28.9293 21.2843 29.0197C21.3387 29.1541 21.3952 29.2843 21.4532 29.4108L22.2905 28.6957L22.2898 28.695Z" fill="#F0AB8F"/>
<path id="Vector_28" d="M28.0158 25.8035C28.7849 25.8035 29.8803 25.2952 29.9368 25.2692L29.8984 25.1875C29.8817 25.1955 28.2268 25.9633 27.5954 25.6307C27.467 25.5635 27.3931 25.4565 27.3685 25.3046L27.2793 25.3191C27.3083 25.4984 27.4004 25.63 27.5533 25.7103C27.6795 25.7768 27.8389 25.8035 28.0165 25.8035H28.0158Z" fill="#5D567C"/>
<path id="Vector_29" d="M29.1326 23.3577C29.1326 23.3577 29.6973 23.4061 29.693 22.9101C29.6894 22.4625 29.1435 22.4062 29.0195 22.6288L29.1326 23.3577Z" fill="#F0AB8F"/>
<path id="Vector_30" d="M26.1209 32.6843C26.1209 32.6843 23.2169 34.5345 21.9628 31.4016C21.6337 30.5802 21.2017 29.2007 21.2017 29.2007L22.2557 28.3901L23.7809 29.8774C23.7809 29.8774 24.2043 28.6533 24.5232 27.6729C24.9546 26.3483 25.952 25.6303 27.354 25.25L26.1202 32.685L26.1209 32.6843Z" fill="white"/>
<path id="Vector_31" d="M29.2404 22.5027C29.2404 22.5027 29.0142 22.5967 29.0505 22.8303C29.0505 22.8303 28.7714 22.8548 28.7634 22.5692C28.7555 22.2836 28.7301 21.8274 28.7301 21.8274C28.7301 21.8274 28.6525 21.4623 28.1262 21.4391C28.1262 21.4391 27.9319 22.0096 27.4049 21.8158C27.4049 21.8158 27.1157 22.3408 26.4981 22.0559C26.4981 22.0559 26.3045 20.9142 27.3237 20.7204C28.3437 20.5267 29.0193 20.8007 29.0991 21.1543C29.1969 21.5924 29.2411 22.5027 29.2411 22.5027H29.2404Z" fill="#2D313D"/>
<path id="Vector_32" d="M27.362 28.6957C27.362 27.8844 26.9148 26.9054 26.8488 26.7659L26.9749 26.4998L26.611 26.4644C26.7314 26.1 27.1112 25.7168 27.1156 25.7124L27.0612 25.6582C27.0438 25.6756 26.6321 26.0913 26.524 26.4875L26.5117 26.5316L26.8582 26.5656L26.7633 26.7659L26.7712 26.7825C26.7763 26.7934 27.2845 27.8418 27.2845 28.695H27.3613L27.362 28.6957Z" fill="#2D313D"/>
<path id="Vector_33" d="M25.7593 29.9792L25.4966 32.2402L25.5729 32.2491L25.8356 29.9881L25.7593 29.9792Z" fill="#433A60"/>
<path id="Vector_34" d="M27.1674 30.4961C27.0739 30.4961 26.9971 30.5727 26.9971 30.6646C26.9971 30.7564 27.0732 30.833 27.1674 30.833C27.2617 30.833 27.3363 30.7578 27.3363 30.6646C27.3363 30.5713 27.2595 30.4961 27.1674 30.4961ZM27.1674 30.7434C27.1232 30.7434 27.0884 30.7087 27.0884 30.6646C27.0884 30.6205 27.1232 30.5865 27.1674 30.5865C27.2116 30.5865 27.2457 30.6212 27.2457 30.6646C27.2457 30.7079 27.2109 30.7434 27.1674 30.7434Z" fill="#323847"/>
<path id="Vector_35" d="M29.8488 22.5181C29.872 22.4704 30.4171 21.336 29.9996 20.7113C29.8111 20.4293 29.4559 20.2999 28.9448 20.3252C28.8803 20.25 28.5903 19.9405 28.1286 19.9072C27.732 19.8783 27.3239 20.062 26.9165 20.4524L26.9701 20.5081C27.3609 20.1336 27.7487 19.9579 28.122 19.9839C28.6027 20.0186 28.8948 20.3852 28.8977 20.3888L28.91 20.4047L28.9303 20.4033C29.4233 20.3751 29.7611 20.4929 29.9358 20.7539C30.3287 21.3418 29.7857 22.4733 29.7799 22.4842L29.8495 22.5181H29.8488Z" fill="#2D313D"/>
<path id="Vector_36" d="M25.8602 28.2267C25.8602 28.2267 25.8979 27.9628 25.8979 27.6294C25.8979 27.1927 25.8334 26.6063 25.526 26.2969L25.4688 26.354C25.7573 26.6439 25.8174 27.2079 25.8174 27.6294C25.8174 27.957 25.7805 28.2129 25.7805 28.2151L25.8609 28.2267H25.8602Z" fill="#2D313D"/>
<path id="Vector_37" d="M28.1189 33.5794L24.7074 33.5534C24.5944 33.5526 24.4994 33.4688 24.4842 33.3567L23.8223 28.4227C23.8042 28.286 23.9108 28.1653 24.0492 28.166L27.4607 28.192C27.5738 28.1928 27.6687 28.2766 27.684 28.3887L28.3458 33.3227C28.3639 33.4594 28.2574 33.5801 28.1189 33.5794Z" fill="#DF6659"/>
<path id="Vector_38" d="M28.5375 30.81C28.4215 30.7745 28.0467 30.6726 27.9627 30.5851C27.8851 30.5041 27.5212 30.0139 27.424 30.0999C27.3218 30.1903 27.643 30.4759 27.5502 30.5338C27.4929 30.5692 26.855 30.0197 26.7825 30.1672C26.7354 30.2641 27.1667 30.5439 27.1239 30.5851C27.0841 30.6227 26.6237 30.1672 26.5462 30.3067C26.465 30.4528 27.1203 30.7485 27.079 30.8136C27.0587 30.8461 26.4208 30.3812 26.3606 30.4969C26.2801 30.6516 26.9137 30.9119 26.8832 30.9857C26.868 31.0218 26.6607 30.8902 26.5273 30.8273C26.4534 30.7926 26.4135 30.8461 26.4461 30.8909C26.7897 31.3515 27.7727 31.5554 27.851 31.6132C27.9685 31.6993 28.0852 31.7803 28.2011 31.8576L28.5368 30.81H28.5375Z" fill="#F0AB8F"/>
<path id="Vector_39" d="M31.4271 30.9413L28.3527 30.5408L27.854 31.929C27.854 31.929 29.4126 33.3425 31.2401 33.8559C32.023 34.0757 33.0596 34.1914 33.8367 33.5862C35.5403 32.2602 34.7719 29.4215 33.3177 26.935C32.4935 25.5258 29.9091 25.1621 29.9091 25.1621L31.4271 30.9406V30.9413Z" fill="white"/>
<path id="Vector_40" d="M29.394 28.7972C29.6608 27.4451 30.327 26.8291 30.3335 26.8233L30.3552 26.8037L30.1892 26.4755L30.5546 26.4849L30.5502 26.4415C30.4952 25.8602 30.0341 25.4509 30.0145 25.4336L29.9638 25.4914C29.9681 25.4951 30.398 25.8768 30.4691 26.4054L30.0631 26.3952L30.261 26.7864C30.1407 26.905 29.5673 27.5246 29.3193 28.7827L29.3947 28.7979L29.394 28.7972Z" fill="#2D313D"/>
<path id="Vector_41" d="M31.0925 28.213L31.1729 28.2007C31.1374 27.9729 31.1193 27.7582 31.1193 27.563C31.1193 26.101 32.0972 26.0648 32.1385 26.0634L32.1371 25.9824C32.1262 25.9824 31.0381 26.0193 31.0381 27.5623C31.0381 27.7618 31.0562 27.9802 31.0925 28.2123V28.213Z" fill="#2D313D"/>
<path id="Vector_42" d="M28.3566 30.5025L28.3472 30.5742L31.4215 30.9747L31.4309 30.903L28.3566 30.5025Z" fill="#2D313D"/>
<path id="Vector_43" d="M32.4082 34.0698C32.0486 34.0698 31.655 34.0098 31.2295 33.8905L31.2491 33.8211C32.0704 34.0517 32.7699 34.056 33.3289 33.8348C33.5043 33.7654 33.6674 33.6721 33.8138 33.5586L33.8588 33.6157C33.7073 33.7336 33.5376 33.8305 33.3564 33.902C33.0737 34.0141 32.7569 34.0705 32.4082 34.0705V34.0698Z" fill="#2D313D"/>
<path id="Vector_44" d="M31.2297 33.8907C29.4145 33.381 27.8443 31.9696 27.8291 31.9558L27.8777 31.9023C27.8929 31.9168 29.4515 33.3159 31.2493 33.8213L31.2297 33.8907Z" fill="#2D313D"/>
<path id="Vector_45" d="M31.4898 29.192L31.4189 29.207L31.779 30.8922L31.8499 30.8771L31.4898 29.192Z" fill="#2D313D"/>
<g id="Group_10">
<path id="Vector_46" d="M18.6985 21.753C18.6985 21.9287 18.5557 22.0704 18.3803 22.0704C18.2048 22.0704 18.062 21.9279 18.062 21.753C18.062 21.578 18.2048 21.4355 18.3803 21.4355C18.5557 21.4355 18.6985 21.578 18.6985 21.753Z" fill="white"/>
<path id="Vector_47" d="M19.6301 21.753C19.6301 21.9287 19.4873 22.0704 19.3119 22.0704C19.1365 22.0704 18.9937 21.9279 18.9937 21.753C18.9937 21.578 19.1365 21.4355 19.3119 21.4355C19.4873 21.4355 19.6301 21.578 19.6301 21.753Z" fill="white"/>
<path id="Vector_48" d="M20.5618 21.753C20.5618 21.9287 20.419 22.0704 20.2435 22.0704C20.0681 22.0704 19.9253 21.9279 19.9253 21.753C19.9253 21.578 20.0681 21.4355 20.2435 21.4355C20.419 21.4355 20.5618 21.578 20.5618 21.753Z" fill="white"/>
</g>
<path id="Vector_49" d="M25.0274 28.4176C24.9542 28.4176 24.8926 28.3641 24.8817 28.2918L24.8353 27.9751C24.8274 27.9136 24.8752 27.8587 24.9383 27.8594L26.4809 27.871C26.5324 27.871 26.5751 27.9093 26.5817 27.9599L26.6208 28.252C26.6324 28.3402 26.5643 28.4183 26.4751 28.4183H25.0274V28.4176Z" fill="#2D313D"/>
<path id="Vector_50" d="M24.4879 30.4767L24.416 30.4863L24.4957 31.0804L24.5676 31.0708L24.4879 30.4767Z" fill="#2D313D"/>
<path id="Vector_51" d="M25.6517 33.2228L25.0094 33.2142C24.8789 33.2134 24.768 33.1151 24.7506 32.9864L24.5483 31.4781L24.6201 31.4688L24.8224 32.977C24.8347 33.0703 24.9159 33.1411 25.0101 33.1419L25.6531 33.1505V33.2228H25.6517Z" fill="#2D313D"/>
<path id="Vector_52" d="M26.0977 33.1582L26.0967 33.2305L26.9129 33.2417L26.9139 33.1694L26.0977 33.1582Z" fill="#2D313D"/>
<path id="Vector_53" d="M25.7321 22.4434H17.8965V22.5157H25.7321V22.4434Z" fill="#2D313D"/>
<path id="Vector_54" d="M36.0788 21.9136H36.0063C36.0063 21.4443 35.6098 21.0625 35.1226 21.0625H31.0508V20.9902H35.1226C35.6497 20.9902 36.0788 21.4045 36.0788 21.9136Z" fill="#2D313D"/>
<path id="Vector_55" d="M17.1946 21.9136H17.1221C17.1221 21.4045 17.5512 20.9902 18.079 20.9902H25.2187V21.0625H18.079C17.5911 21.0625 17.1946 21.4443 17.1946 21.9136Z" fill="#2D313D"/>
<path id="Vector_56" d="M17.1946 24.7383H17.1221V26.7707H17.1946V24.7383Z" fill="#2D313D"/>
<path id="Vector_57" d="M36.0787 36.056H36.0062V22.5157H30.665V22.4434H36.0787V36.056Z" fill="#2D313D"/>
<path id="Vector_58" d="M35.1225 36.98H18.079C17.5512 36.98 17.1221 36.5664 17.1221 36.0574V28.0273H17.1946V36.0574C17.1946 36.5259 17.5911 36.9077 18.079 36.9077H35.1225V36.98Z" fill="#2D313D"/>
</g>
</g>
<defs>
<clipPath id="clip0_3409_30839">
<rect width="64" height="64" fill="white"/>
</clipPath>
</defs>
</svg>
