<?xml version="1.0" encoding="UTF-8"?>
<svg xmlns="http://www.w3.org/2000/svg" xmlns:xlink="http://www.w3.org/1999/xlink" width="1024px" height="1024px" viewBox="0 0 1024 1024" version="1.1">
<g id="surface1">
<path style=" stroke:none;fill-rule:nonzero;fill:rgb(0%,41.960784%,34.901961%);fill-opacity:1;" d="M 512 0 C 429.28125 0 379.761719 12.601562 348.320312 28.320312 C 332.558594 36.199219 321.359375 44.480469 313.839844 52.921875 C 308.679688 59.238281 304.519531 66.28125 301.519531 73.839844 C 300.28125 77 299.480469 80.320312 299.078125 83.679688 L 278.121094 353.238281 C 277.839844 354.878906 278.398438 357.558594 278.121094 359.398438 L 275.679688 386.480469 C 275.441406 388.921875 275.441406 391.398438 275.679688 393.839844 C 275.679688 523.800781 382.039062 630.160156 512 630.160156 C 641.960938 630.160156 748.28125 523.800781 748.28125 393.839844 L 748.28125 387.71875 C 748.320312 387.28125 748.320312 386.878906 748.28125 386.480469 L 724.921875 83.679688 C 724.519531 80.320312 723.679688 77 722.480469 73.839844 C 722.480469 73.839844 717.679688 61.398438 710.121094 52.921875 C 702.601562 44.441406 691.441406 36.160156 675.679688 28.320312 C 644.199219 12.558594 594.679688 0 512 0 Z M 512 630.160156 C 252.039062 630.160156 39.359375 752.480469 39.359375 862.761719 L 39.359375 1024 L 984.601562 1024 L 984.601562 862.761719 C 984.601562 758 792.320312 642.601562 550.160156 631.359375 C 537.441406 630.519531 524.71875 630.121094 512 630.160156 Z M 512 78.761719 C 586.839844 78.761719 624.199219 90.601562 640 98.480469 C 645.28125 101.121094 645.878906 102.121094 647.398438 103.398438 L 663.398438 305.238281 C 627.160156 307.441406 577.761719 315.078125 512 315.078125 C 446.199219 315.078125 396.878906 307.441406 360.601562 305.238281 L 376.601562 103.398438 C 378.039062 102.121094 378.71875 101.121094 384 98.480469 C 399.800781 90.601562 437.160156 78.761719 512 78.761719 Z M 479.960938 118.160156 L 479.960938 164.960938 L 433.238281 164.960938 L 433.238281 228.960938 L 480 228.960938 L 480 275.679688 L 543.960938 275.679688 L 543.960938 228.921875 L 590.761719 228.921875 L 590.761719 164.960938 L 543.960938 164.960938 L 543.960938 118.160156 Z M 393.839844 718.761719 L 494.761719 945.238281 L 118.160156 945.238281 L 118.160156 862.761719 C 118.160156 833.398438 218.558594 747.480469 393.839844 718.761719 Z M 630.160156 718.761719 C 805.398438 747.519531 905.839844 833.398438 905.839844 862.761719 L 905.839844 945.238281 L 529.199219 945.238281 Z M 630.160156 718.761719 "/>
</g>
</svg>
